<svg width="81" height="76" viewBox="0 0 81 76" fill="none" xmlns="http://www.w3.org/2000/svg">
<path d="M59 18.4L68.6 9.59998" stroke="#333333" stroke-width="1.56" stroke-linecap="round" stroke-linejoin="round"/>
<path d="M12.2 65.6L21.8 56.8" stroke="#333333" stroke-width="1.56" stroke-linecap="round" stroke-linejoin="round"/>
<path d="M22.1324 18.5004L12.5291 9.70386" stroke="#333333" stroke-width="1.56" stroke-linecap="round" stroke-linejoin="round"/>
<path d="M69.0032 65.5635L59.4 56.767" stroke="#333333" stroke-width="1.56" stroke-linecap="round" stroke-linejoin="round"/>
<circle cx="40.4" cy="37.8" r="14.2" stroke="#2BB2BB" stroke-width="2"/>
<path d="M79.0434 37.1912C48.1882 17.6796 31.04 18.9583 1.99274 37.1738C1.51813 37.4714 1.47529 38.154 1.93239 38.4778C9.12579 43.5747 25.6919 52.5059 41.6 52.2C57.4682 51.8949 72.6574 43.3203 79.1199 38.4786C79.5589 38.1496 79.507 37.4844 79.0434 37.1912Z" stroke="#333333" stroke-width="1.56" stroke-linecap="round" stroke-linejoin="round"/>
<circle cx="40.6" cy="37.6" r="5.2" stroke="#333333" stroke-width="1.56"/>
<path d="M40.6 1V13.8" stroke="#333333" stroke-width="1.56" stroke-linecap="round" stroke-linejoin="round"/>
<path d="M40.6709 62V74.8" stroke="#333333" stroke-width="1.56" stroke-linecap="round" stroke-linejoin="round"/>
</svg>
