<svg width="1440" height="600" viewBox="0 0 1440 600" fill="none" xmlns="http://www.w3.org/2000/svg">
<g opacity="0.2">
<g filter="url(#filter0_f_111_62)">
<path d="M308.849 14.3709C283.131 8.87497 210.684 65.7622 173.975 98.053C171.411 100.309 169.974 103.554 169.974 106.969V107.381C169.974 109.634 169.34 111.841 168.144 113.75L155.665 133.681C153.904 136.493 153.386 139.908 154.234 143.115L167.14 191.95C168.74 198.003 174.725 201.809 180.886 200.69L349.789 170.013C357.154 168.676 363.933 174.334 363.933 181.82V231.396C363.933 235.453 365.983 239.236 369.383 241.451L477.324 311.776C479.749 313.357 482.664 314.007 485.532 313.607L737.448 278.478C743.78 277.595 748.309 271.909 747.733 265.542C742.224 204.584 732.074 101.602 728.578 101.602C723.923 101.602 342.21 21.5004 308.849 14.3709Z" fill="#24C1FD"/>
</g>
<g filter="url(#filter1_f_111_62)">
<path d="M727.57 345.855L719.631 231.37C719.193 225.057 706.129 222.06 695.475 225.181C673.795 231.533 643.389 237.607 614.046 235.8C572.918 233.268 525.499 198.27 504.828 179.271C503.407 177.965 501.34 176.959 498.74 176.419C446.81 165.623 333.4 155.49 264.309 196.029C175.69 248.027 81.4702 196.704 74.7996 201.337C69.5615 204.976 43.5368 285.338 30.4848 327.269C30.0066 328.805 28.7936 330.264 26.9629 331.536L-52.0413 386.415C-58.5731 390.952 -56.3267 397.173 -47.4845 398.892C19.4747 411.917 136.183 433.79 179.346 438.742C222.651 443.71 283.193 485.272 314.539 510.51C318.926 514.042 328.061 514.615 335.083 511.735L720.468 353.697C725.057 351.815 727.775 348.814 727.57 345.855Z" fill="#83D2D8"/>
</g>
</g>
<g opacity="0.4">
<g filter="url(#filter2_f_111_62)">
<path d="M1086.8 436.756C1106.86 440.434 1158.24 395.518 1184.15 369.995C1186.05 368.127 1186.96 365.492 1186.71 362.751C1186.54 360.945 1186.89 359.161 1187.71 357.603L1195.28 343.197C1196.78 340.357 1196.98 336.954 1195.85 333.792L1183.82 300.224C1181.67 294.229 1175.33 290.593 1169.27 291.878L1047.75 317.629C1040.51 319.164 1033.21 313.709 1032.53 306.251L1029.49 273.046C1029.12 269.013 1026.73 265.307 1023.14 263.19L937.75 212.846C935.175 211.328 932.192 210.755 929.353 211.233L742.392 242.709C736.148 243.761 732.139 249.521 733.295 255.842C741.868 302.708 756.382 378.585 759.013 378.515C762.58 378.419 1060.73 431.977 1086.8 436.756Z" fill="#2BB2BB"/>
</g>
<g opacity="0.4" filter="url(#filter3_f_111_62)">
<path d="M742.819 192.417L756.226 275.563C757.241 281.858 770.653 284.555 781.213 281.405C796.85 276.741 817.212 272.624 837.366 273.322C868.731 274.408 907.049 299.73 924.488 313.957C926.037 315.22 928.206 316.172 930.86 316.633C971.824 323.755 1058.47 328.858 1108.18 296.628C1172.44 254.961 1248.25 292.361 1253.04 288.673C1256.78 285.793 1270.94 224.361 1278.04 191.81C1278.38 190.264 1279.46 188.764 1281.17 187.446L1334.43 146.416C1340.53 141.711 1337.71 135.558 1328.72 134.081C1275.95 125.416 1188.81 111.714 1156.26 108.88C1123.57 106.035 1075.89 76.8807 1049.61 58.0924C1044.87 54.699 1035.68 54.3656 1028.93 57.4294L749.189 184.402C744.781 186.402 742.344 189.469 742.819 192.417Z" fill="#57CFFD"/>
</g>
</g>
<defs>
<filter id="filter0_f_111_62" x="-146.165" y="-286" width="1193.95" height="899.722" filterUnits="userSpaceOnUse" color-interpolation-filters="sRGB">
<feFlood flood-opacity="0" result="BackgroundImageFix"/>
<feBlend mode="normal" in="SourceGraphic" in2="BackgroundImageFix" result="shape"/>
<feGaussianBlur stdDeviation="150" result="effect1_foregroundBlur_111_62"/>
</filter>
<filter id="filter1_f_111_62" x="-355.807" y="-133.196" width="1383.39" height="946.77" filterUnits="userSpaceOnUse" color-interpolation-filters="sRGB">
<feFlood flood-opacity="0" result="BackgroundImageFix"/>
<feBlend mode="normal" in="SourceGraphic" in2="BackgroundImageFix" result="shape"/>
<feGaussianBlur stdDeviation="150" result="effect1_foregroundBlur_111_62"/>
</filter>
<filter id="filter2_f_111_62" x="433.097" y="-88.9314" width="1063.48" height="825.9" filterUnits="userSpaceOnUse" color-interpolation-filters="sRGB">
<feFlood flood-opacity="0" result="BackgroundImageFix"/>
<feBlend mode="normal" in="SourceGraphic" in2="BackgroundImageFix" result="shape"/>
<feGaussianBlur stdDeviation="150" result="effect1_foregroundBlur_111_62"/>
</filter>
<filter id="filter3_f_111_62" x="442.761" y="-244.675" width="1194.92" height="866.626" filterUnits="userSpaceOnUse" color-interpolation-filters="sRGB">
<feFlood flood-opacity="0" result="BackgroundImageFix"/>
<feBlend mode="normal" in="SourceGraphic" in2="BackgroundImageFix" result="shape"/>
<feGaussianBlur stdDeviation="150" result="effect1_foregroundBlur_111_62"/>
</filter>
</defs>
</svg>
