<svg width="550" height="550" viewBox="0 0 550 550" fill="none" xmlns="http://www.w3.org/2000/svg">
<g id="hero-img">
<circle id="Ellipse 1" opacity="0.2" cx="275.912" cy="275" r="229.395" stroke="#83D2D8" stroke-width="3.64842"/>
<circle id="Ellipse 2" opacity="0.4" cx="275.456" cy="275.456" r="180.597" stroke="#57CFFD" stroke-width="5.47264"/>
<circle id="Ellipse 3" opacity="0.6" cx="275.912" cy="275" r="119.942" stroke="#0BBAFD" stroke-width="5.47264"/>
<g id="job">
<circle id="Ellipse 8" cx="179.685" cy="341.128" r="18.2421" fill="#561FC1"/>
</g>
<g id="callendar">
<circle id="Ellipse 6" cx="404.063" cy="456.965" r="24.6269" fill="#70D6FE"/>
<g id="Frame">
<path id="Vector" d="M397.279 445.336V448.243M410.847 445.336V448.243M392.434 465.687V451.15C392.434 450.379 392.74 449.64 393.285 449.095C393.83 448.549 394.57 448.243 395.341 448.243H412.785C413.556 448.243 414.296 448.549 414.841 449.095C415.386 449.64 415.692 450.379 415.692 451.15V465.687M392.434 465.687C392.434 466.458 392.74 467.198 393.285 467.743C393.83 468.288 394.57 468.595 395.341 468.595H412.785C413.556 468.595 414.296 468.288 414.841 467.743C415.386 467.198 415.692 466.458 415.692 465.687M392.434 465.687V455.996C392.434 455.225 392.74 454.485 393.285 453.94C393.83 453.395 394.57 453.089 395.341 453.089H412.785C413.556 453.089 414.296 453.395 414.841 453.94C415.386 454.485 415.692 455.225 415.692 455.996V465.687M404.063 457.934H404.073V457.945H404.063V457.934ZM404.063 460.842H404.073V460.852H404.063V460.842ZM404.063 463.749H404.073V463.759H404.063V463.749ZM401.156 460.842H401.166V460.852H401.156V460.842ZM401.156 463.749H401.166V463.759H401.156V463.749ZM398.248 460.842H398.259V460.852H398.248V460.842ZM398.248 463.749H398.259V463.759H398.248V463.749ZM406.97 457.934H406.981V457.945H406.97V457.934ZM406.97 460.842H406.981V460.852H406.97V460.842ZM406.97 463.749H406.981V463.759H406.97V463.749ZM409.878 457.934H409.888V457.945H409.878V457.934ZM409.878 460.842H409.888V460.852H409.878V460.842Z" stroke="#E9F8FE" stroke-width="1.93823" stroke-linecap="round" stroke-linejoin="round"/>
</g>
</g>
<g id="money">
<circle id="Ellipse 7" cx="55.6385" cy="347.512" r="24.6269" fill="#3DC8FD"/>
<g id="Frame_2">
<path id="Vector_2" d="M45.3488 354.496C51.2293 354.491 57.0842 355.27 62.7591 356.811C63.5603 357.03 64.3605 356.434 64.3605 355.603V354.496M47.0019 338.79V339.617C47.0019 339.836 46.9149 340.047 46.7598 340.202C46.6048 340.357 46.3946 340.444 46.1754 340.444H45.3488M45.3488 340.444V340.03C45.3488 339.346 45.9042 338.79 46.5886 338.79H65.1871M45.3488 340.444V350.363M65.1871 338.79V339.617C65.1871 340.073 65.5574 340.444 66.0137 340.444H66.8403M65.1871 338.79H65.6004C66.2848 338.79 66.8403 339.346 66.8403 340.03V350.776C66.8403 351.461 66.2848 352.016 65.6004 352.016H65.1871M45.3488 350.363V350.776C45.3488 351.105 45.4794 351.42 45.7119 351.653C45.9444 351.885 46.2598 352.016 46.5886 352.016H47.0019M45.3488 350.363H46.1754C46.3946 350.363 46.6048 350.45 46.7598 350.605C46.9149 350.76 47.0019 350.97 47.0019 351.189V352.016M65.1871 352.016V351.189C65.1871 350.97 65.2742 350.76 65.4292 350.605C65.5842 350.45 65.7944 350.363 66.0137 350.363H66.8403M65.1871 352.016H47.0019M59.4009 345.403C59.4009 346.28 59.0525 347.121 58.4325 347.741C57.8124 348.361 56.9714 348.71 56.0945 348.71C55.2176 348.71 54.3766 348.361 53.7565 347.741C53.1365 347.121 52.7881 346.28 52.7881 345.403C52.7881 344.526 53.1365 343.685 53.7565 343.065C54.3766 342.445 55.2176 342.097 56.0945 342.097C56.9714 342.097 57.8124 342.445 58.4325 343.065C59.0525 343.685 59.4009 344.526 59.4009 345.403ZM62.7073 345.403H62.7161V345.412H62.7073V345.403ZM49.4817 345.403H49.4906V345.412H49.4817V345.403Z" stroke="white" stroke-width="1.65319" stroke-linecap="round" stroke-linejoin="round"/>
</g>
</g>
<g id="management">
<circle id="Ellipse 4" cx="470.647" cy="150.497" r="24.6269" fill="#C65249"/>
<g id="Frame_3">
<path id="Vector_3" d="M469.051 144.113C467.472 144.113 465.929 144.581 464.617 145.458C463.304 146.335 462.281 147.581 461.677 149.04C461.073 150.498 460.915 152.103 461.223 153.651C461.531 155.199 462.291 156.621 463.407 157.737C464.523 158.853 465.945 159.613 467.494 159.921C469.042 160.229 470.646 160.071 472.105 159.467C473.563 158.863 474.81 157.84 475.687 156.528C476.563 155.215 477.032 153.672 477.032 152.094H469.051V144.113Z" stroke="white" stroke-width="1.59619" stroke-linecap="round" stroke-linejoin="round"/>
<path id="Vector_4" d="M472.243 148.901H480.224C480.224 146.785 479.383 144.755 477.886 143.258C476.39 141.761 474.36 140.92 472.243 140.92V148.901Z" stroke="white" stroke-width="1.59619" stroke-linecap="round" stroke-linejoin="round"/>
</g>
</g>
<g id="wallet">
<circle id="Ellipse 5" cx="235.323" cy="101.244" r="24.6269" fill="#59A2A8"/>
<g id="Frame_4">
<path id="Vector_5" d="M244.9 101.244C244.9 100.609 244.648 99.9998 244.199 99.5508C243.75 99.1018 243.141 98.8495 242.506 98.8495H238.516C238.516 99.6962 238.179 100.508 237.581 101.107C236.982 101.706 236.17 102.042 235.323 102.042C234.477 102.042 233.665 101.706 233.066 101.107C232.467 100.508 232.131 99.6962 232.131 98.8495H228.14C227.505 98.8495 226.896 99.1018 226.447 99.5508C225.998 99.9998 225.746 100.609 225.746 101.244M244.9 101.244V107.629C244.9 108.264 244.648 108.873 244.199 109.322C243.75 109.771 243.141 110.023 242.506 110.023H228.14C227.505 110.023 226.896 109.771 226.447 109.322C225.998 108.873 225.746 108.264 225.746 107.629V101.244M244.9 101.244V98.0514M225.746 101.244V98.0514M244.9 98.0514C244.9 97.4164 244.648 96.8074 244.199 96.3584C243.75 95.9094 243.141 95.6571 242.506 95.6571H228.14C227.505 95.6571 226.896 95.9094 226.447 96.3584C225.998 96.8074 225.746 97.4164 225.746 98.0514M244.9 98.0514V94.859C244.9 94.224 244.648 93.615 244.199 93.166C243.75 92.717 243.141 92.4648 242.506 92.4648H228.14C227.505 92.4648 226.896 92.717 226.447 93.166C225.998 93.615 225.746 94.224 225.746 94.859V98.0514" stroke="white" stroke-width="1.59619" stroke-linecap="round" stroke-linejoin="round"/>
</g>
</g>
<g id="Frame 2" filter="url(#filter0_b_20_199)">
<rect x="132" y="142" width="200" height="45.539" rx="9.12106" fill="white"/>
<g id="icon">
<rect id="Rectangle 5" x="142" y="152" width="25.539" height="25.539" rx="5.47264" fill="#A98EDF"/>
<g id="Frame_5">
<path id="Vector_6" d="M161.188 166.612V169.8C161.188 170.62 160.597 171.327 159.784 171.435C158.218 171.643 156.622 171.75 155 171.75C153.379 171.75 151.782 171.643 150.217 171.435C149.403 171.327 148.813 170.62 148.813 169.8V166.612M161.188 166.612C161.366 166.458 161.508 166.266 161.605 166.051C161.702 165.836 161.752 165.603 161.75 165.367V162.529C161.75 161.719 161.174 161.018 160.372 160.898C159.523 160.771 158.669 160.674 157.813 160.608M161.188 166.612C161.042 166.736 160.873 166.834 160.683 166.897C158.85 167.506 156.931 167.815 155 167.812C153.014 167.812 151.104 167.491 149.317 166.897C149.132 166.836 148.961 166.739 148.813 166.612M148.813 166.612C148.634 166.458 148.492 166.266 148.395 166.051C148.298 165.836 148.248 165.603 148.25 165.367V162.529C148.25 161.719 148.826 161.018 149.628 160.898C150.477 160.771 151.331 160.674 152.188 160.608M157.813 160.608V159.937C157.813 159.49 157.635 159.061 157.318 158.744C157.002 158.428 156.573 158.25 156.125 158.25H153.875C153.427 158.25 152.998 158.428 152.682 158.744C152.365 159.061 152.188 159.49 152.188 159.937V160.608M157.813 160.608C155.94 160.463 154.06 160.463 152.188 160.608M155 165.562H155.006V165.568H155V165.562Z" stroke="white" stroke-width="1.2" stroke-linecap="round" stroke-linejoin="round"/>
</g>
</g>
<path id="T&#195;&#169;cnico de Contabilidade" d="M178.371 164V156.524H175.683V155.6H182.079V156.524H179.403V164H178.371ZM186.134 155.516L184.886 157.292H183.974L185.018 155.516H186.134ZM186.326 162.056H187.298C187.094 163.292 186.026 164.096 184.526 164.096C182.738 164.096 181.538 162.668 181.538 160.94C181.538 159.164 182.642 157.856 184.418 157.856C186.182 157.856 187.238 159.08 187.238 160.688C187.238 160.82 187.226 161.024 187.214 161.108H182.486C182.558 162.356 183.386 163.244 184.526 163.244C185.51 163.244 186.134 162.812 186.326 162.056ZM184.418 158.672C183.398 158.672 182.714 159.272 182.534 160.34H186.254C186.182 159.32 185.498 158.672 184.418 158.672ZM191.122 164.096C189.214 164.096 188.182 162.596 188.182 160.976C188.182 159.356 189.214 157.856 191.122 157.856C192.478 157.856 193.69 158.648 193.87 159.992H192.922C192.802 159.26 192.046 158.72 191.134 158.72C189.814 158.72 189.178 159.74 189.178 160.976C189.178 162.212 189.826 163.232 191.134 163.232C192.046 163.232 192.706 162.776 192.922 162.044H193.858C193.654 163.28 192.658 164.096 191.122 164.096ZM195.046 164V157.952H196.006V159.116C196.318 158.276 197.074 157.856 197.998 157.856C199.366 157.856 200.254 158.828 200.254 160.304V164H199.294V160.46C199.294 159.428 198.694 158.732 197.782 158.732C196.75 158.732 196.006 159.56 196.006 160.736V164H195.046ZM201.771 155.468H202.875V156.812H201.771V155.468ZM201.843 164V157.952H202.803V164H201.843ZM206.978 164.096C205.07 164.096 204.038 162.596 204.038 160.976C204.038 159.356 205.07 157.856 206.978 157.856C208.334 157.856 209.546 158.648 209.726 159.992H208.778C208.658 159.26 207.902 158.72 206.99 158.72C205.67 158.72 205.034 159.74 205.034 160.976C205.034 162.212 205.682 163.232 206.99 163.232C207.902 163.232 208.562 162.776 208.778 162.044H209.714C209.51 163.28 208.514 164.096 206.978 164.096ZM213.625 164.096C211.837 164.096 210.553 162.788 210.553 160.976C210.553 159.152 211.837 157.856 213.625 157.856C215.425 157.856 216.709 159.152 216.709 160.976C216.709 162.788 215.425 164.096 213.625 164.096ZM213.625 163.232C214.873 163.232 215.725 162.296 215.725 160.976C215.725 159.656 214.873 158.72 213.625 158.72C212.389 158.72 211.537 159.656 211.537 160.976C211.537 162.296 212.389 163.232 213.625 163.232ZM223.372 164.096C221.488 164.096 220.456 162.74 220.456 160.976C220.456 159.212 221.488 157.856 223.372 157.856C224.224 157.856 225.016 158.288 225.376 158.936V155.468H226.336V164H225.376V163.004C225.016 163.664 224.224 164.096 223.372 164.096ZM223.456 163.232C224.668 163.232 225.46 162.344 225.46 160.976C225.46 159.608 224.668 158.72 223.456 158.72C222.244 158.72 221.44 159.608 221.44 160.976C221.44 162.344 222.244 163.232 223.456 163.232ZM232.404 162.056H233.376C233.172 163.292 232.104 164.096 230.604 164.096C228.816 164.096 227.616 162.668 227.616 160.94C227.616 159.164 228.72 157.856 230.496 157.856C232.26 157.856 233.316 159.08 233.316 160.688C233.316 160.82 233.304 161.024 233.292 161.108H228.564C228.636 162.356 229.464 163.244 230.604 163.244C231.588 163.244 232.212 162.812 232.404 162.056ZM230.496 158.672C229.476 158.672 228.792 159.272 228.612 160.34H232.332C232.26 159.32 231.576 158.672 230.496 158.672ZM241.224 164.096C239.124 164.096 237.18 162.692 237.18 159.8C237.18 156.896 239.136 155.504 241.224 155.504C243.048 155.504 244.548 156.644 244.776 158.216H243.696C243.552 157.184 242.508 156.428 241.224 156.428C239.472 156.428 238.236 157.616 238.236 159.8C238.236 161.984 239.472 163.172 241.224 163.172C242.532 163.172 243.588 162.416 243.708 161.384H244.764C244.584 162.956 243.084 164.096 241.224 164.096ZM248.688 164.096C246.9 164.096 245.616 162.788 245.616 160.976C245.616 159.152 246.9 157.856 248.688 157.856C250.488 157.856 251.772 159.152 251.772 160.976C251.772 162.788 250.488 164.096 248.688 164.096ZM248.688 163.232C249.936 163.232 250.788 162.296 250.788 160.976C250.788 159.656 249.936 158.72 248.688 158.72C247.452 158.72 246.6 159.656 246.6 160.976C246.6 162.296 247.452 163.232 248.688 163.232ZM253.007 164V157.952H253.967V159.116C254.279 158.276 255.035 157.856 255.959 157.856C257.327 157.856 258.215 158.828 258.215 160.304V164H257.255V160.46C257.255 159.428 256.655 158.732 255.743 158.732C254.711 158.732 253.967 159.56 253.967 160.736V164H253.007ZM260.241 156.02H261.201V157.952H263.061V158.804H261.201V162.08C261.201 162.752 261.585 163.148 262.173 163.148H263.061V164H262.137C260.985 164 260.241 163.28 260.241 162.104V158.804H258.981V157.952H260.241V156.02ZM266.233 157.856C267.805 157.856 268.789 158.756 268.789 160.1V164H267.829V162.956C267.505 163.652 266.701 164.096 265.765 164.096C264.493 164.096 263.665 163.376 263.665 162.272C263.665 161.12 264.613 160.388 266.077 160.388H267.445C267.709 160.388 267.829 160.256 267.829 160.064C267.829 159.236 267.241 158.672 266.209 158.672C265.321 158.672 264.625 159.224 264.577 159.884H263.665C263.773 158.72 264.877 157.856 266.233 157.856ZM265.909 163.28C267.121 163.28 267.829 162.524 267.829 161.276V161.12H266.137C265.237 161.12 264.649 161.552 264.649 162.26C264.649 162.884 265.141 163.28 265.909 163.28ZM273.222 164.096C272.382 164.096 271.59 163.664 271.218 163.004V164H270.258V155.468H271.218V158.936C271.59 158.288 272.37 157.856 273.222 157.856C275.106 157.856 276.138 159.212 276.138 160.976C276.138 162.74 275.106 164.096 273.222 164.096ZM273.138 163.232C274.362 163.232 275.154 162.344 275.154 160.976C275.154 159.608 274.362 158.72 273.138 158.72C271.926 158.72 271.134 159.608 271.134 160.976C271.134 162.344 271.926 163.232 273.138 163.232ZM277.298 155.468H278.402V156.812H277.298V155.468ZM277.37 164V157.952H278.33V164H277.37ZM279.961 164V155.468H280.921V164H279.961ZM282.478 155.468H283.582V156.812H282.478V155.468ZM282.55 164V157.952H283.51V164H282.55ZM287.661 164.096C285.777 164.096 284.745 162.74 284.745 160.976C284.745 159.212 285.777 157.856 287.661 157.856C288.513 157.856 289.305 158.288 289.665 158.936V155.468H290.625V164H289.665V163.004C289.305 163.664 288.513 164.096 287.661 164.096ZM287.745 163.232C288.957 163.232 289.749 162.344 289.749 160.976C289.749 159.608 288.957 158.72 287.745 158.72C286.533 158.72 285.729 159.608 285.729 160.976C285.729 162.344 286.533 163.232 287.745 163.232ZM294.593 157.856C296.165 157.856 297.149 158.756 297.149 160.1V164H296.189V162.956C295.865 163.652 295.061 164.096 294.125 164.096C292.853 164.096 292.025 163.376 292.025 162.272C292.025 161.12 292.973 160.388 294.437 160.388H295.805C296.069 160.388 296.189 160.256 296.189 160.064C296.189 159.236 295.601 158.672 294.569 158.672C293.681 158.672 292.985 159.224 292.937 159.884H292.025C292.133 158.72 293.237 157.856 294.593 157.856ZM294.269 163.28C295.481 163.28 296.189 162.524 296.189 161.276V161.12H294.497C293.597 161.12 293.009 161.552 293.009 162.26C293.009 162.884 293.501 163.28 294.269 163.28ZM301.137 164.096C299.253 164.096 298.221 162.74 298.221 160.976C298.221 159.212 299.253 157.856 301.137 157.856C301.989 157.856 302.781 158.288 303.141 158.936V155.468H304.101V164H303.141V163.004C302.781 163.664 301.989 164.096 301.137 164.096ZM301.221 163.232C302.433 163.232 303.225 162.344 303.225 160.976C303.225 159.608 302.433 158.72 301.221 158.72C300.009 158.72 299.205 159.608 299.205 160.976C299.205 162.344 300.009 163.232 301.221 163.232ZM310.169 162.056H311.141C310.937 163.292 309.869 164.096 308.369 164.096C306.581 164.096 305.381 162.668 305.381 160.94C305.381 159.164 306.485 157.856 308.261 157.856C310.025 157.856 311.081 159.08 311.081 160.688C311.081 160.82 311.069 161.024 311.057 161.108H306.329C306.401 162.356 307.229 163.244 308.369 163.244C309.353 163.244 309.977 162.812 310.169 162.056ZM308.261 158.672C307.241 158.672 306.557 159.272 306.377 160.34H310.097C310.025 159.32 309.341 158.672 308.261 158.672Z" fill="#828282"/>
</g>
<g id="Frame 3" filter="url(#filter1_b_20_199)">
<rect x="71" y="204" width="200" height="48" rx="9.12106" fill="white"/>
<g id="icon_2">
<rect id="Rectangle 5_2" x="81" y="214" width="25.539" height="25.539" rx="5.47264" fill="#DCB029"/>
<g id="Frame_6">
<path id="Vector_7" d="M100.188 228.612V231.8C100.188 232.62 99.5973 233.327 98.7835 233.435C97.2183 233.643 95.6215 233.75 94 233.75C92.3785 233.75 90.7818 233.643 89.2165 233.435C88.4028 233.327 87.8125 232.62 87.8125 231.8V228.612M100.188 228.612C100.366 228.458 100.508 228.266 100.605 228.051C100.702 227.836 100.752 227.603 100.75 227.367V224.529C100.75 223.719 100.174 223.018 99.3723 222.898C98.5228 222.771 97.669 222.674 96.8125 222.608M100.188 228.612C100.042 228.736 99.8725 228.834 99.6828 228.897C97.85 229.506 95.9311 229.815 94 229.812C92.014 229.812 90.1038 229.491 88.3173 228.897C88.1322 228.836 87.9608 228.739 87.8125 228.612M87.8125 228.612C87.6344 228.458 87.492 228.266 87.3949 228.051C87.2978 227.836 87.2484 227.603 87.25 227.367V224.529C87.25 223.719 87.826 223.018 88.6278 222.898C89.4773 222.771 90.3311 222.674 91.1875 222.608M96.8125 222.608V221.937C96.8125 221.49 96.6348 221.061 96.3183 220.744C96.0018 220.428 95.5726 220.25 95.125 220.25H92.875C92.4275 220.25 91.9983 220.428 91.6818 220.744C91.3653 221.061 91.1875 221.49 91.1875 221.937V222.608M96.8125 222.608C94.9403 222.463 93.0598 222.463 91.1875 222.608M94 227.562H94.006V227.568H94V227.562Z" stroke="white" stroke-width="1.2" stroke-linecap="round" stroke-linejoin="round"/>
</g>
</g>
<path id="Assistente de Faturamento e Vendas" d="M121.175 226L120.311 223.732H116.567L115.691 226H114.623L117.971 217.6H118.895L122.243 226H121.175ZM116.915 222.82H119.951L118.439 218.86L116.915 222.82ZM125.224 226.096C123.82 226.096 122.908 225.316 122.812 224.056H123.736C123.82 224.836 124.348 225.256 125.224 225.256C125.98 225.256 126.484 224.836 126.484 224.344C126.484 222.544 122.968 224.164 122.968 221.548C122.968 220.528 123.832 219.856 125.104 219.856C126.436 219.856 127.336 220.588 127.408 221.704H126.472C126.388 220.936 125.632 220.672 125.08 220.672C124.372 220.672 123.904 221.008 123.904 221.536C123.904 223.168 127.444 221.548 127.444 224.32C127.444 225.4 126.556 226.096 125.224 226.096ZM130.861 226.096C129.457 226.096 128.545 225.316 128.449 224.056H129.373C129.457 224.836 129.985 225.256 130.861 225.256C131.617 225.256 132.121 224.836 132.121 224.344C132.121 222.544 128.605 224.164 128.605 221.548C128.605 220.528 129.469 219.856 130.741 219.856C132.073 219.856 132.973 220.588 133.045 221.704H132.109C132.025 220.936 131.269 220.672 130.717 220.672C130.009 220.672 129.541 221.008 129.541 221.536C129.541 223.168 133.081 221.548 133.081 224.32C133.081 225.4 132.193 226.096 130.861 226.096ZM134.325 217.468H135.429V218.812H134.325V217.468ZM134.397 226V219.952H135.357V226H134.397ZM139.04 226.096C137.636 226.096 136.724 225.316 136.628 224.056H137.552C137.636 224.836 138.164 225.256 139.04 225.256C139.796 225.256 140.3 224.836 140.3 224.344C140.3 222.544 136.784 224.164 136.784 221.548C136.784 220.528 137.648 219.856 138.92 219.856C140.252 219.856 141.152 220.588 141.224 221.704H140.288C140.204 220.936 139.448 220.672 138.896 220.672C138.188 220.672 137.72 221.008 137.72 221.536C137.72 223.168 141.26 221.548 141.26 224.32C141.26 225.4 140.372 226.096 139.04 226.096ZM143.155 218.02H144.115V219.952H145.975V220.804H144.115V224.08C144.115 224.752 144.499 225.148 145.087 225.148H145.975V226H145.051C143.899 226 143.155 225.28 143.155 224.104V220.804H141.895V219.952H143.155V218.02ZM151.294 224.056H152.266C152.062 225.292 150.994 226.096 149.494 226.096C147.706 226.096 146.506 224.668 146.506 222.94C146.506 221.164 147.61 219.856 149.386 219.856C151.15 219.856 152.206 221.08 152.206 222.688C152.206 222.82 152.194 223.024 152.182 223.108H147.454C147.526 224.356 148.354 225.244 149.494 225.244C150.478 225.244 151.102 224.812 151.294 224.056ZM149.386 220.672C148.366 220.672 147.682 221.272 147.502 222.34H151.222C151.15 221.32 150.466 220.672 149.386 220.672ZM153.499 226V219.952H154.459V221.116C154.771 220.276 155.527 219.856 156.451 219.856C157.819 219.856 158.707 220.828 158.707 222.304V226H157.747V222.46C157.747 221.428 157.147 220.732 156.235 220.732C155.203 220.732 154.459 221.56 154.459 222.736V226H153.499ZM160.733 218.02H161.693V219.952H163.553V220.804H161.693V224.08C161.693 224.752 162.077 225.148 162.665 225.148H163.553V226H162.629C161.477 226 160.733 225.28 160.733 224.104V220.804H159.473V219.952H160.733V218.02ZM168.873 224.056H169.845C169.641 225.292 168.573 226.096 167.073 226.096C165.285 226.096 164.085 224.668 164.085 222.94C164.085 221.164 165.189 219.856 166.965 219.856C168.729 219.856 169.785 221.08 169.785 222.688C169.785 222.82 169.773 223.024 169.761 223.108H165.033C165.105 224.356 165.933 225.244 167.073 225.244C168.057 225.244 168.681 224.812 168.873 224.056ZM166.965 220.672C165.945 220.672 165.261 221.272 165.081 222.34H168.801C168.729 221.32 168.045 220.672 166.965 220.672ZM176.504 226.096C174.62 226.096 173.588 224.74 173.588 222.976C173.588 221.212 174.62 219.856 176.504 219.856C177.356 219.856 178.148 220.288 178.508 220.936V217.468H179.468V226H178.508V225.004C178.148 225.664 177.356 226.096 176.504 226.096ZM176.588 225.232C177.8 225.232 178.592 224.344 178.592 222.976C178.592 221.608 177.8 220.72 176.588 220.72C175.376 220.72 174.572 221.608 174.572 222.976C174.572 224.344 175.376 225.232 176.588 225.232ZM185.537 224.056H186.509C186.305 225.292 185.237 226.096 183.737 226.096C181.949 226.096 180.749 224.668 180.749 222.94C180.749 221.164 181.853 219.856 183.629 219.856C185.393 219.856 186.449 221.08 186.449 222.688C186.449 222.82 186.437 223.024 186.425 223.108H181.697C181.769 224.356 182.597 225.244 183.737 225.244C184.721 225.244 185.345 224.812 185.537 224.056ZM183.629 220.672C182.609 220.672 181.925 221.272 181.745 222.34H185.465C185.393 221.32 184.709 220.672 183.629 220.672ZM190.696 226V217.6H195.952V218.524H191.716V221.296H195.16V222.22H191.716V226H190.696ZM198.812 219.856C200.384 219.856 201.368 220.756 201.368 222.1V226H200.408V224.956C200.084 225.652 199.28 226.096 198.344 226.096C197.072 226.096 196.244 225.376 196.244 224.272C196.244 223.12 197.192 222.388 198.656 222.388H200.024C200.288 222.388 200.408 222.256 200.408 222.064C200.408 221.236 199.82 220.672 198.788 220.672C197.9 220.672 197.204 221.224 197.156 221.884H196.244C196.352 220.72 197.456 219.856 198.812 219.856ZM198.488 225.28C199.7 225.28 200.408 224.524 200.408 223.276V223.12H198.716C197.816 223.12 197.228 223.552 197.228 224.26C197.228 224.884 197.72 225.28 198.488 225.28ZM203.413 218.02H204.373V219.952H206.233V220.804H204.373V224.08C204.373 224.752 204.757 225.148 205.345 225.148H206.233V226H205.309C204.157 226 203.413 225.28 203.413 224.104V220.804H202.153V219.952H203.413V218.02ZM212.426 219.952V226H211.466V224.836C211.154 225.676 210.41 226.096 209.474 226.096C208.106 226.096 207.218 225.124 207.218 223.648V219.952H208.178V223.492C208.178 224.524 208.778 225.22 209.69 225.22C210.734 225.22 211.466 224.392 211.466 223.216V219.952H212.426ZM217.387 220.804H216.547C215.323 220.804 214.975 221.908 214.975 223.336V226H214.015V219.952H214.975V221.176C215.227 220.348 215.731 219.952 216.619 219.952H217.387V220.804ZM220.538 219.856C222.11 219.856 223.094 220.756 223.094 222.1V226H222.134V224.956C221.81 225.652 221.006 226.096 220.07 226.096C218.798 226.096 217.97 225.376 217.97 224.272C217.97 223.12 218.918 222.388 220.382 222.388H221.75C222.014 222.388 222.134 222.256 222.134 222.064C222.134 221.236 221.546 220.672 220.514 220.672C219.626 220.672 218.93 221.224 218.882 221.884H217.97C218.078 220.72 219.182 219.856 220.538 219.856ZM220.214 225.28C221.426 225.28 222.134 224.524 222.134 223.276V223.12H220.442C219.542 223.12 218.954 223.552 218.954 224.26C218.954 224.884 219.446 225.28 220.214 225.28ZM224.515 226V219.952H225.475V221.116C225.703 220.384 226.375 219.856 227.299 219.856C228.295 219.856 229.075 220.312 229.291 221.14C229.519 220.42 230.323 219.856 231.247 219.856C232.555 219.856 233.347 220.732 233.347 222.196V226H232.387V222.448C232.387 221.416 231.871 220.708 231.019 220.708C230.011 220.708 229.411 221.416 229.411 222.448V226H228.451V222.448C228.451 221.416 227.935 220.708 227.095 220.708C226.075 220.708 225.475 221.416 225.475 222.448V226H224.515ZM239.373 224.056H240.345C240.141 225.292 239.073 226.096 237.573 226.096C235.785 226.096 234.585 224.668 234.585 222.94C234.585 221.164 235.689 219.856 237.465 219.856C239.229 219.856 240.285 221.08 240.285 222.688C240.285 222.82 240.273 223.024 240.261 223.108H235.533C235.605 224.356 236.433 225.244 237.573 225.244C238.557 225.244 239.181 224.812 239.373 224.056ZM237.465 220.672C236.445 220.672 235.761 221.272 235.581 222.34H239.301C239.229 221.32 238.545 220.672 237.465 220.672ZM241.577 226V219.952H242.537V221.116C242.849 220.276 243.605 219.856 244.529 219.856C245.897 219.856 246.785 220.828 246.785 222.304V226H245.825V222.46C245.825 221.428 245.225 220.732 244.313 220.732C243.281 220.732 242.537 221.56 242.537 222.736V226H241.577ZM248.811 218.02H249.771V219.952H251.631V220.804H249.771V224.08C249.771 224.752 250.155 225.148 250.743 225.148H251.631V226H250.707C249.555 226 248.811 225.28 248.811 224.104V220.804H247.551V219.952H248.811V218.02ZM255.235 226.096C253.447 226.096 252.163 224.788 252.163 222.976C252.163 221.152 253.447 219.856 255.235 219.856C257.035 219.856 258.319 221.152 258.319 222.976C258.319 224.788 257.035 226.096 255.235 226.096ZM255.235 225.232C256.483 225.232 257.335 224.296 257.335 222.976C257.335 221.656 256.483 220.72 255.235 220.72C253.999 220.72 253.147 221.656 253.147 222.976C253.147 224.296 253.999 225.232 255.235 225.232ZM119.771 238.056H120.743C120.539 239.292 119.471 240.096 117.971 240.096C116.183 240.096 114.983 238.668 114.983 236.94C114.983 235.164 116.087 233.856 117.863 233.856C119.627 233.856 120.683 235.08 120.683 236.688C120.683 236.82 120.671 237.024 120.659 237.108H115.931C116.003 238.356 116.831 239.244 117.971 239.244C118.955 239.244 119.579 238.812 119.771 238.056ZM117.863 234.672C116.843 234.672 116.159 235.272 115.979 236.34H119.699C119.627 235.32 118.943 234.672 117.863 234.672ZM127.307 240L124.127 231.6H125.183L127.823 238.812L130.487 231.6H131.531L128.351 240H127.307ZM136.001 238.056H136.973C136.769 239.292 135.701 240.096 134.201 240.096C132.413 240.096 131.213 238.668 131.213 236.94C131.213 235.164 132.317 233.856 134.093 233.856C135.857 233.856 136.913 235.08 136.913 236.688C136.913 236.82 136.901 237.024 136.889 237.108H132.161C132.233 238.356 133.061 239.244 134.201 239.244C135.185 239.244 135.809 238.812 136.001 238.056ZM134.093 234.672C133.073 234.672 132.389 235.272 132.209 236.34H135.929C135.857 235.32 135.173 234.672 134.093 234.672ZM138.206 240V233.952H139.166V235.116C139.478 234.276 140.234 233.856 141.158 233.856C142.526 233.856 143.414 234.828 143.414 236.304V240H142.454V236.46C142.454 235.428 141.854 234.732 140.942 234.732C139.91 234.732 139.166 235.56 139.166 236.736V240H138.206ZM147.571 240.096C145.687 240.096 144.655 238.74 144.655 236.976C144.655 235.212 145.687 233.856 147.571 233.856C148.423 233.856 149.215 234.288 149.575 234.936V231.468H150.535V240H149.575V239.004C149.215 239.664 148.423 240.096 147.571 240.096ZM147.655 239.232C148.867 239.232 149.659 238.344 149.659 236.976C149.659 235.608 148.867 234.72 147.655 234.72C146.443 234.72 145.639 235.608 145.639 236.976C145.639 238.344 146.443 239.232 147.655 239.232ZM154.503 233.856C156.075 233.856 157.059 234.756 157.059 236.1V240H156.099V238.956C155.775 239.652 154.971 240.096 154.035 240.096C152.763 240.096 151.935 239.376 151.935 238.272C151.935 237.12 152.883 236.388 154.347 236.388H155.715C155.979 236.388 156.099 236.256 156.099 236.064C156.099 235.236 155.511 234.672 154.479 234.672C153.591 234.672 152.895 235.224 152.847 235.884H151.935C152.043 234.72 153.147 233.856 154.503 233.856ZM154.179 239.28C155.391 239.28 156.099 238.524 156.099 237.276V237.12H154.407C153.507 237.12 152.919 237.552 152.919 238.26C152.919 238.884 153.411 239.28 154.179 239.28ZM160.579 240.096C159.175 240.096 158.263 239.316 158.167 238.056H159.091C159.175 238.836 159.703 239.256 160.579 239.256C161.335 239.256 161.839 238.836 161.839 238.344C161.839 236.544 158.323 238.164 158.323 235.548C158.323 234.528 159.187 233.856 160.459 233.856C161.791 233.856 162.691 234.588 162.763 235.704H161.827C161.743 234.936 160.987 234.672 160.435 234.672C159.727 234.672 159.259 235.008 159.259 235.536C159.259 237.168 162.799 235.548 162.799 238.32C162.799 239.4 161.911 240.096 160.579 240.096Z" fill="#828282"/>
</g>
<g id="Frame 4" filter="url(#filter2_b_20_199)">
<rect x="307" y="220" width="200" height="48" rx="9.12106" fill="white"/>
<g id="icon_3">
<rect id="Rectangle 5_3" x="317" y="230" width="25.539" height="25.539" rx="5.47264" fill="#9B51E0"/>
<g id="Frame_7">
<path id="Vector_8" d="M336.188 244.612V247.8C336.188 248.62 335.597 249.327 334.784 249.435C333.218 249.643 331.622 249.75 330 249.75C328.379 249.75 326.782 249.643 325.217 249.435C324.403 249.327 323.813 248.62 323.813 247.8V244.612M336.188 244.612C336.366 244.458 336.508 244.266 336.605 244.051C336.702 243.836 336.752 243.603 336.75 243.367V240.529C336.75 239.719 336.174 239.018 335.372 238.898C334.523 238.771 333.669 238.674 332.813 238.608M336.188 244.612C336.042 244.736 335.873 244.834 335.683 244.897C333.85 245.506 331.931 245.815 330 245.812C328.014 245.812 326.104 245.491 324.317 244.897C324.132 244.836 323.961 244.739 323.813 244.612M323.813 244.612C323.634 244.458 323.492 244.266 323.395 244.051C323.298 243.836 323.248 243.603 323.25 243.367V240.529C323.25 239.719 323.826 239.018 324.628 238.898C325.477 238.771 326.331 238.674 327.188 238.608M332.813 238.608V237.937C332.813 237.49 332.635 237.061 332.318 236.744C332.002 236.428 331.573 236.25 331.125 236.25H328.875C328.427 236.25 327.998 236.428 327.682 236.744C327.365 237.061 327.188 237.49 327.188 237.937V238.608M332.813 238.608C330.94 238.463 329.06 238.463 327.188 238.608M330 243.562H330.006V243.568H330V243.562Z" stroke="white" stroke-width="1.2" stroke-linecap="round" stroke-linejoin="round"/>
</g>
</g>
<path id="T&#195;&#169;cnico de Perfura&#195;&#167;&#195;&#163;o e Produ&#195;&#167;&#195;&#163;o" d="M353.371 242V234.524H350.683V233.6H357.079V234.524H354.403V242H353.371ZM361.134 233.516L359.886 235.292H358.974L360.018 233.516H361.134ZM361.326 240.056H362.298C362.094 241.292 361.026 242.096 359.526 242.096C357.738 242.096 356.538 240.668 356.538 238.94C356.538 237.164 357.642 235.856 359.418 235.856C361.182 235.856 362.238 237.08 362.238 238.688C362.238 238.82 362.226 239.024 362.214 239.108H357.486C357.558 240.356 358.386 241.244 359.526 241.244C360.51 241.244 361.134 240.812 361.326 240.056ZM359.418 236.672C358.398 236.672 357.714 237.272 357.534 238.34H361.254C361.182 237.32 360.498 236.672 359.418 236.672ZM366.122 242.096C364.214 242.096 363.182 240.596 363.182 238.976C363.182 237.356 364.214 235.856 366.122 235.856C367.478 235.856 368.69 236.648 368.87 237.992H367.922C367.802 237.26 367.046 236.72 366.134 236.72C364.814 236.72 364.178 237.74 364.178 238.976C364.178 240.212 364.826 241.232 366.134 241.232C367.046 241.232 367.706 240.776 367.922 240.044H368.858C368.654 241.28 367.658 242.096 366.122 242.096ZM370.046 242V235.952H371.006V237.116C371.318 236.276 372.074 235.856 372.998 235.856C374.366 235.856 375.254 236.828 375.254 238.304V242H374.294V238.46C374.294 237.428 373.694 236.732 372.782 236.732C371.75 236.732 371.006 237.56 371.006 238.736V242H370.046ZM376.771 233.468H377.875V234.812H376.771V233.468ZM376.843 242V235.952H377.803V242H376.843ZM381.978 242.096C380.07 242.096 379.038 240.596 379.038 238.976C379.038 237.356 380.07 235.856 381.978 235.856C383.334 235.856 384.546 236.648 384.726 237.992H383.778C383.658 237.26 382.902 236.72 381.99 236.72C380.67 236.72 380.034 237.74 380.034 238.976C380.034 240.212 380.682 241.232 381.99 241.232C382.902 241.232 383.562 240.776 383.778 240.044H384.714C384.51 241.28 383.514 242.096 381.978 242.096ZM388.625 242.096C386.837 242.096 385.553 240.788 385.553 238.976C385.553 237.152 386.837 235.856 388.625 235.856C390.425 235.856 391.709 237.152 391.709 238.976C391.709 240.788 390.425 242.096 388.625 242.096ZM388.625 241.232C389.873 241.232 390.725 240.296 390.725 238.976C390.725 237.656 389.873 236.72 388.625 236.72C387.389 236.72 386.537 237.656 386.537 238.976C386.537 240.296 387.389 241.232 388.625 241.232ZM398.372 242.096C396.488 242.096 395.456 240.74 395.456 238.976C395.456 237.212 396.488 235.856 398.372 235.856C399.224 235.856 400.016 236.288 400.376 236.936V233.468H401.336V242H400.376V241.004C400.016 241.664 399.224 242.096 398.372 242.096ZM398.456 241.232C399.668 241.232 400.46 240.344 400.46 238.976C400.46 237.608 399.668 236.72 398.456 236.72C397.244 236.72 396.44 237.608 396.44 238.976C396.44 240.344 397.244 241.232 398.456 241.232ZM407.404 240.056H408.376C408.172 241.292 407.104 242.096 405.604 242.096C403.816 242.096 402.616 240.668 402.616 238.94C402.616 237.164 403.72 235.856 405.496 235.856C407.26 235.856 408.316 237.08 408.316 238.688C408.316 238.82 408.304 239.024 408.292 239.108H403.564C403.636 240.356 404.464 241.244 405.604 241.244C406.588 241.244 407.212 240.812 407.404 240.056ZM405.496 236.672C404.476 236.672 403.792 237.272 403.612 238.34H407.332C407.26 237.32 406.576 236.672 405.496 236.672ZM412.564 242V233.6H415.72C417.388 233.6 418.396 234.608 418.396 236.084C418.396 237.56 417.388 238.568 415.72 238.568H413.584V242H412.564ZM413.584 237.656H415.72C416.908 237.656 417.352 236.912 417.352 236.084C417.352 235.256 416.908 234.512 415.72 234.512H413.584V237.656ZM423.705 240.056H424.677C424.473 241.292 423.405 242.096 421.905 242.096C420.117 242.096 418.917 240.668 418.917 238.94C418.917 237.164 420.021 235.856 421.797 235.856C423.561 235.856 424.617 237.08 424.617 238.688C424.617 238.82 424.605 239.024 424.593 239.108H419.865C419.937 240.356 420.765 241.244 421.905 241.244C422.889 241.244 423.513 240.812 423.705 240.056ZM421.797 236.672C420.777 236.672 420.093 237.272 419.913 238.34H423.633C423.561 237.32 422.877 236.672 421.797 236.672ZM429.773 242V235.34C429.773 234.188 430.505 233.468 431.657 233.468H432.617V234.32H431.705C431.117 234.32 430.733 234.704 430.733 235.352V235.952H432.617V236.804H430.733V242H429.773ZM429.221 236.804H428.441C427.217 236.804 426.869 237.908 426.869 239.336V242H425.909V235.952H426.869V237.176C427.121 236.348 427.625 235.952 428.513 235.952H429.221V236.804ZM438.746 235.952V242H437.786V240.836C437.474 241.676 436.73 242.096 435.794 242.096C434.426 242.096 433.538 241.124 433.538 239.648V235.952H434.498V239.492C434.498 240.524 435.098 241.22 436.01 241.22C437.054 241.22 437.786 240.392 437.786 239.216V235.952H438.746ZM443.707 236.804H442.867C441.643 236.804 441.295 237.908 441.295 239.336V242H440.335V235.952H441.295V237.176C441.547 236.348 442.051 235.952 442.939 235.952H443.707V236.804ZM446.858 235.856C448.43 235.856 449.414 236.756 449.414 238.1V242H448.454V240.956C448.13 241.652 447.326 242.096 446.39 242.096C445.118 242.096 444.29 241.376 444.29 240.272C444.29 239.12 445.238 238.388 446.702 238.388H448.07C448.334 238.388 448.454 238.256 448.454 238.064C448.454 237.236 447.866 236.672 446.834 236.672C445.946 236.672 445.25 237.224 445.202 237.884H444.29C444.398 236.72 445.502 235.856 446.858 235.856ZM446.534 241.28C447.746 241.28 448.454 240.524 448.454 239.276V239.12H446.762C445.862 239.12 445.274 239.552 445.274 240.26C445.274 240.884 445.766 241.28 446.534 241.28ZM453.427 242.096C451.519 242.096 450.487 240.596 450.487 238.976C450.487 237.356 451.519 235.856 453.427 235.856C454.783 235.856 455.995 236.648 456.175 237.992H455.227C455.107 237.26 454.351 236.72 453.439 236.72C452.119 236.72 451.483 237.74 451.483 238.976C451.483 240.212 452.131 241.232 453.439 241.232C454.351 241.232 455.011 240.776 455.227 240.044H456.163C455.959 241.28 454.963 242.096 453.427 242.096ZM453.091 244.46H451.831L453.127 242.708H453.955L453.091 244.46ZM459.044 234.488C458.804 234.488 458.624 234.656 458.576 234.908H457.832C457.892 234.176 458.348 233.684 458.96 233.684C459.668 233.684 459.956 234.164 460.376 234.164C460.616 234.164 460.796 233.996 460.856 233.744H461.588C461.54 234.488 461.084 234.968 460.46 234.968C459.764 234.968 459.464 234.488 459.044 234.488ZM459.632 235.856C461.204 235.856 462.188 236.756 462.188 238.1V242H461.228V240.956C460.904 241.652 460.1 242.096 459.164 242.096C457.892 242.096 457.064 241.376 457.064 240.272C457.064 239.12 458.012 238.388 459.476 238.388H460.844C461.108 238.388 461.228 238.256 461.228 238.064C461.228 237.236 460.64 236.672 459.608 236.672C458.72 236.672 458.024 237.224 457.976 237.884H457.064C457.172 236.72 458.276 235.856 459.632 235.856ZM459.308 241.28C460.52 241.28 461.228 240.524 461.228 239.276V239.12H459.536C458.636 239.12 458.048 239.552 458.048 240.26C458.048 240.884 458.54 241.28 459.308 241.28ZM466.332 242.096C464.544 242.096 463.26 240.788 463.26 238.976C463.26 237.152 464.544 235.856 466.332 235.856C468.132 235.856 469.416 237.152 469.416 238.976C469.416 240.788 468.132 242.096 466.332 242.096ZM466.332 241.232C467.58 241.232 468.432 240.296 468.432 238.976C468.432 237.656 467.58 236.72 466.332 236.72C465.096 236.72 464.244 237.656 464.244 238.976C464.244 240.296 465.096 241.232 466.332 241.232ZM477.951 240.056H478.923C478.719 241.292 477.651 242.096 476.151 242.096C474.363 242.096 473.163 240.668 473.163 238.94C473.163 237.164 474.267 235.856 476.043 235.856C477.807 235.856 478.863 237.08 478.863 238.688C478.863 238.82 478.851 239.024 478.839 239.108H474.111C474.183 240.356 475.011 241.244 476.151 241.244C477.135 241.244 477.759 240.812 477.951 240.056ZM476.043 236.672C475.023 236.672 474.339 237.272 474.159 238.34H477.879C477.807 237.32 477.123 236.672 476.043 236.672ZM351.427 256V247.6H354.583C356.251 247.6 357.259 248.608 357.259 250.084C357.259 251.56 356.251 252.568 354.583 252.568H352.447V256H351.427ZM352.447 251.656H354.583C355.771 251.656 356.215 250.912 356.215 250.084C356.215 249.256 355.771 248.512 354.583 248.512H352.447V251.656ZM361.734 250.804H360.894C359.67 250.804 359.322 251.908 359.322 253.336V256H358.362V249.952H359.322V251.176C359.574 250.348 360.078 249.952 360.966 249.952H361.734V250.804ZM365.199 256.096C363.411 256.096 362.127 254.788 362.127 252.976C362.127 251.152 363.411 249.856 365.199 249.856C366.999 249.856 368.283 251.152 368.283 252.976C368.283 254.788 366.999 256.096 365.199 256.096ZM365.199 255.232C366.447 255.232 367.299 254.296 367.299 252.976C367.299 251.656 366.447 250.72 365.199 250.72C363.963 250.72 363.111 251.656 363.111 252.976C363.111 254.296 363.963 255.232 365.199 255.232ZM372.086 256.096C370.202 256.096 369.17 254.74 369.17 252.976C369.17 251.212 370.202 249.856 372.086 249.856C372.938 249.856 373.73 250.288 374.09 250.936V247.468H375.05V256H374.09V255.004C373.73 255.664 372.938 256.096 372.086 256.096ZM372.17 255.232C373.382 255.232 374.174 254.344 374.174 252.976C374.174 251.608 373.382 250.72 372.17 250.72C370.958 250.72 370.154 251.608 370.154 252.976C370.154 254.344 370.958 255.232 372.17 255.232ZM381.676 249.952V256H380.716V254.836C380.404 255.676 379.66 256.096 378.724 256.096C377.356 256.096 376.468 255.124 376.468 253.648V249.952H377.428V253.492C377.428 254.524 378.028 255.22 378.94 255.22C379.984 255.22 380.716 254.392 380.716 253.216V249.952H381.676ZM385.857 256.096C383.949 256.096 382.917 254.596 382.917 252.976C382.917 251.356 383.949 249.856 385.857 249.856C387.213 249.856 388.425 250.648 388.605 251.992H387.657C387.537 251.26 386.781 250.72 385.869 250.72C384.549 250.72 383.913 251.74 383.913 252.976C383.913 254.212 384.561 255.232 385.869 255.232C386.781 255.232 387.441 254.776 387.657 254.044H388.593C388.389 255.28 387.393 256.096 385.857 256.096ZM385.521 258.46H384.261L385.557 256.708H386.385L385.521 258.46ZM391.474 248.488C391.234 248.488 391.054 248.656 391.006 248.908H390.262C390.322 248.176 390.778 247.684 391.39 247.684C392.098 247.684 392.386 248.164 392.806 248.164C393.046 248.164 393.226 247.996 393.286 247.744H394.018C393.97 248.488 393.514 248.968 392.89 248.968C392.194 248.968 391.894 248.488 391.474 248.488ZM392.062 249.856C393.634 249.856 394.618 250.756 394.618 252.1V256H393.658V254.956C393.334 255.652 392.53 256.096 391.594 256.096C390.322 256.096 389.494 255.376 389.494 254.272C389.494 253.12 390.442 252.388 391.906 252.388H393.274C393.538 252.388 393.658 252.256 393.658 252.064C393.658 251.236 393.07 250.672 392.038 250.672C391.15 250.672 390.454 251.224 390.406 251.884H389.494C389.602 250.72 390.706 249.856 392.062 249.856ZM391.738 255.28C392.95 255.28 393.658 254.524 393.658 253.276V253.12H391.966C391.066 253.12 390.478 253.552 390.478 254.26C390.478 254.884 390.97 255.28 391.738 255.28ZM398.762 256.096C396.974 256.096 395.69 254.788 395.69 252.976C395.69 251.152 396.974 249.856 398.762 249.856C400.562 249.856 401.846 251.152 401.846 252.976C401.846 254.788 400.562 256.096 398.762 256.096ZM398.762 255.232C400.01 255.232 400.862 254.296 400.862 252.976C400.862 251.656 400.01 250.72 398.762 250.72C397.526 250.72 396.674 251.656 396.674 252.976C396.674 254.296 397.526 255.232 398.762 255.232Z" fill="#828282"/>
</g>
<g id="Frame 5" filter="url(#filter3_b_20_199)">
<rect x="98" y="266" width="200" height="48" rx="9.12106" fill="white"/>
<g id="icon_4">
<rect id="Rectangle 5_4" x="108" y="276" width="25.539" height="25.539" rx="5.47264" fill="#A98EDF"/>
<g id="Frame_8" clip-path="url(#clip0_20_199)">
<path id="Vector_9" d="M126.938 290.362V293.55C126.938 294.37 126.347 295.077 125.534 295.185C123.968 295.393 122.372 295.5 120.75 295.5C119.129 295.5 117.532 295.393 115.967 295.185C115.153 295.077 114.563 294.37 114.563 293.55V290.362M126.938 290.362C127.116 290.208 127.258 290.016 127.355 289.801C127.452 289.586 127.502 289.353 127.5 289.117V286.28C127.5 285.469 126.924 284.768 126.122 284.648C125.273 284.521 124.419 284.424 123.563 284.358M126.938 290.362C126.792 290.486 126.623 290.584 126.433 290.647C124.6 291.256 122.681 291.565 120.75 291.562C118.764 291.562 116.854 291.241 115.067 290.647C114.882 290.586 114.711 290.489 114.563 290.362M114.563 290.362C114.384 290.208 114.242 290.016 114.145 289.801C114.048 289.586 113.998 289.353 114 289.117V286.28C114 285.469 114.576 284.768 115.378 284.648C116.227 284.521 117.081 284.424 117.938 284.358M123.563 284.358V283.688C123.563 283.24 123.385 282.811 123.068 282.494C122.752 282.178 122.323 282 121.875 282H119.625C119.177 282 118.748 282.178 118.432 282.494C118.115 282.811 117.938 283.24 117.938 283.688V284.358M123.563 284.358C121.69 284.213 119.81 284.213 117.938 284.358M120.75 289.312H120.756V289.319H120.75V289.312Z" stroke="white" stroke-width="1.2" stroke-linecap="round" stroke-linejoin="round"/>
</g>
</g>
<path id="Bussiness Development Manager" d="M142.427 288V279.6H145.427C147.023 279.6 147.995 280.392 147.995 281.76C147.995 282.54 147.443 283.164 146.879 283.404C147.743 283.692 148.367 284.376 148.367 285.552C148.367 287.064 147.347 288 145.619 288H142.427ZM143.447 283.08H145.403C146.411 283.08 146.975 282.648 146.975 281.784C146.975 280.92 146.411 280.5 145.403 280.5H143.447V283.08ZM143.447 287.076H145.451C146.687 287.076 147.323 286.536 147.323 285.54C147.323 284.532 146.687 283.992 145.451 283.992H143.447V287.076ZM154.875 281.952V288H153.915V286.836C153.603 287.676 152.859 288.096 151.923 288.096C150.555 288.096 149.667 287.124 149.667 285.648V281.952H150.627V285.492C150.627 286.524 151.227 287.22 152.139 287.22C153.183 287.22 153.915 286.392 153.915 285.216V281.952H154.875ZM158.564 288.096C157.16 288.096 156.248 287.316 156.152 286.056H157.076C157.16 286.836 157.688 287.256 158.564 287.256C159.32 287.256 159.824 286.836 159.824 286.344C159.824 284.544 156.308 286.164 156.308 283.548C156.308 282.528 157.172 281.856 158.444 281.856C159.776 281.856 160.676 282.588 160.748 283.704H159.812C159.728 282.936 158.972 282.672 158.42 282.672C157.712 282.672 157.244 283.008 157.244 283.536C157.244 285.168 160.784 283.548 160.784 286.32C160.784 287.4 159.896 288.096 158.564 288.096ZM164.2 288.096C162.796 288.096 161.884 287.316 161.788 286.056H162.712C162.796 286.836 163.324 287.256 164.2 287.256C164.956 287.256 165.46 286.836 165.46 286.344C165.46 284.544 161.944 286.164 161.944 283.548C161.944 282.528 162.808 281.856 164.08 281.856C165.412 281.856 166.312 282.588 166.384 283.704H165.448C165.364 282.936 164.608 282.672 164.056 282.672C163.348 282.672 162.88 283.008 162.88 283.536C162.88 285.168 166.42 283.548 166.42 286.32C166.42 287.4 165.532 288.096 164.2 288.096ZM167.665 279.468H168.769V280.812H167.665V279.468ZM167.737 288V281.952H168.697V288H167.737ZM170.28 288V281.952H171.24V283.116C171.552 282.276 172.308 281.856 173.232 281.856C174.6 281.856 175.488 282.828 175.488 284.304V288H174.528V284.46C174.528 283.428 173.928 282.732 173.016 282.732C171.984 282.732 171.24 283.56 171.24 284.736V288H170.28ZM181.517 286.056H182.489C182.285 287.292 181.217 288.096 179.717 288.096C177.929 288.096 176.729 286.668 176.729 284.94C176.729 283.164 177.833 281.856 179.609 281.856C181.373 281.856 182.429 283.08 182.429 284.688C182.429 284.82 182.417 285.024 182.405 285.108H177.677C177.749 286.356 178.577 287.244 179.717 287.244C180.701 287.244 181.325 286.812 181.517 286.056ZM179.609 282.672C178.589 282.672 177.905 283.272 177.725 284.34H181.445C181.373 283.32 180.689 282.672 179.609 282.672ZM185.763 288.096C184.359 288.096 183.447 287.316 183.351 286.056H184.275C184.359 286.836 184.887 287.256 185.763 287.256C186.519 287.256 187.023 286.836 187.023 286.344C187.023 284.544 183.507 286.164 183.507 283.548C183.507 282.528 184.371 281.856 185.643 281.856C186.975 281.856 187.875 282.588 187.947 283.704H187.011C186.927 282.936 186.171 282.672 185.619 282.672C184.911 282.672 184.443 283.008 184.443 283.536C184.443 285.168 187.983 283.548 187.983 286.32C187.983 287.4 187.095 288.096 185.763 288.096ZM191.4 288.096C189.996 288.096 189.084 287.316 188.988 286.056H189.912C189.996 286.836 190.524 287.256 191.4 287.256C192.156 287.256 192.66 286.836 192.66 286.344C192.66 284.544 189.144 286.164 189.144 283.548C189.144 282.528 190.008 281.856 191.28 281.856C192.612 281.856 193.512 282.588 193.584 283.704H192.648C192.564 282.936 191.808 282.672 191.256 282.672C190.548 282.672 190.08 283.008 190.08 283.536C190.08 285.168 193.62 283.548 193.62 286.32C193.62 287.4 192.732 288.096 191.4 288.096ZM197.892 288V279.6H200.364C202.716 279.6 204.552 281.124 204.552 283.8C204.552 286.476 202.716 288 200.364 288H197.892ZM198.912 287.076H200.34C201.972 287.076 203.484 286.116 203.484 283.8C203.484 281.484 201.972 280.524 200.34 280.524H198.912V287.076ZM210.287 286.056H211.259C211.055 287.292 209.987 288.096 208.487 288.096C206.699 288.096 205.499 286.668 205.499 284.94C205.499 283.164 206.603 281.856 208.379 281.856C210.143 281.856 211.199 283.08 211.199 284.688C211.199 284.82 211.187 285.024 211.175 285.108H206.447C206.519 286.356 207.347 287.244 208.487 287.244C209.471 287.244 210.095 286.812 210.287 286.056ZM208.379 282.672C207.359 282.672 206.675 283.272 206.495 284.34H210.215C210.143 283.32 209.459 282.672 208.379 282.672ZM213.876 288L211.656 281.952H212.652L214.368 286.8L216.084 281.952H217.092L214.872 288H213.876ZM222.275 286.056H223.247C223.043 287.292 221.975 288.096 220.475 288.096C218.687 288.096 217.487 286.668 217.487 284.94C217.487 283.164 218.591 281.856 220.367 281.856C222.131 281.856 223.187 283.08 223.187 284.688C223.187 284.82 223.175 285.024 223.163 285.108H218.435C218.507 286.356 219.335 287.244 220.475 287.244C221.459 287.244 222.083 286.812 222.275 286.056ZM220.367 282.672C219.347 282.672 218.663 283.272 218.483 284.34H222.203C222.131 283.32 221.447 282.672 220.367 282.672ZM224.527 288V279.468H225.487V288H224.527ZM229.84 288.096C228.052 288.096 226.768 286.788 226.768 284.976C226.768 283.152 228.052 281.856 229.84 281.856C231.64 281.856 232.924 283.152 232.924 284.976C232.924 286.788 231.64 288.096 229.84 288.096ZM229.84 287.232C231.088 287.232 231.94 286.296 231.94 284.976C231.94 283.656 231.088 282.72 229.84 282.72C228.604 282.72 227.752 283.656 227.752 284.976C227.752 286.296 228.604 287.232 229.84 287.232ZM234.207 290.448V281.952H235.167V282.948C235.539 282.288 236.319 281.856 237.183 281.856C239.055 281.856 240.087 283.212 240.087 284.976C240.087 286.74 239.031 288.096 237.159 288.096C236.307 288.096 235.527 287.676 235.167 287.028V290.448H234.207ZM237.087 287.232C238.299 287.232 239.091 286.344 239.091 284.976C239.091 283.608 238.299 282.72 237.087 282.72C235.875 282.72 235.083 283.608 235.083 284.976C235.083 286.344 235.875 287.232 237.087 287.232ZM241.319 288V281.952H242.279V283.116C242.507 282.384 243.179 281.856 244.103 281.856C245.099 281.856 245.879 282.312 246.095 283.14C246.323 282.42 247.127 281.856 248.051 281.856C249.359 281.856 250.151 282.732 250.151 284.196V288H249.191V284.448C249.191 283.416 248.675 282.708 247.823 282.708C246.815 282.708 246.215 283.416 246.215 284.448V288H245.255V284.448C245.255 283.416 244.739 282.708 243.899 282.708C242.879 282.708 242.279 283.416 242.279 284.448V288H241.319ZM256.177 286.056H257.149C256.945 287.292 255.877 288.096 254.377 288.096C252.589 288.096 251.389 286.668 251.389 284.94C251.389 283.164 252.493 281.856 254.269 281.856C256.033 281.856 257.089 283.08 257.089 284.688C257.089 284.82 257.077 285.024 257.065 285.108H252.337C252.409 286.356 253.237 287.244 254.377 287.244C255.361 287.244 255.985 286.812 256.177 286.056ZM254.269 282.672C253.249 282.672 252.565 283.272 252.385 284.34H256.105C256.033 283.32 255.349 282.672 254.269 282.672ZM258.382 288V281.952H259.342V283.116C259.654 282.276 260.41 281.856 261.334 281.856C262.702 281.856 263.59 282.828 263.59 284.304V288H262.63V284.46C262.63 283.428 262.03 282.732 261.118 282.732C260.086 282.732 259.342 283.56 259.342 284.736V288H258.382ZM265.616 280.02H266.576V281.952H268.436V282.804H266.576V286.08C266.576 286.752 266.96 287.148 267.548 287.148H268.436V288H267.512C266.36 288 265.616 287.28 265.616 286.104V282.804H264.356V281.952H265.616V280.02ZM142.427 302V293.6H143.759L146.531 300.62L149.291 293.6H150.623V302H149.627V295.304L146.975 302H146.075L143.423 295.304V302H142.427ZM154.644 295.856C156.216 295.856 157.2 296.756 157.2 298.1V302H156.24V300.956C155.916 301.652 155.112 302.096 154.176 302.096C152.904 302.096 152.076 301.376 152.076 300.272C152.076 299.12 153.024 298.388 154.488 298.388H155.856C156.12 298.388 156.24 298.256 156.24 298.064C156.24 297.236 155.652 296.672 154.62 296.672C153.732 296.672 153.036 297.224 152.988 297.884H152.076C152.184 296.72 153.288 295.856 154.644 295.856ZM154.32 301.28C155.532 301.28 156.24 300.524 156.24 299.276V299.12H154.548C153.648 299.12 153.06 299.552 153.06 300.26C153.06 300.884 153.552 301.28 154.32 301.28ZM158.62 302V295.952H159.58V297.116C159.892 296.276 160.648 295.856 161.572 295.856C162.94 295.856 163.828 296.828 163.828 298.304V302H162.868V298.46C162.868 297.428 162.268 296.732 161.356 296.732C160.324 296.732 159.58 297.56 159.58 298.736V302H158.62ZM167.663 295.856C169.235 295.856 170.219 296.756 170.219 298.1V302H169.259V300.956C168.935 301.652 168.131 302.096 167.195 302.096C165.923 302.096 165.095 301.376 165.095 300.272C165.095 299.12 166.043 298.388 167.507 298.388H168.875C169.139 298.388 169.259 298.256 169.259 298.064C169.259 297.236 168.671 296.672 167.639 296.672C166.751 296.672 166.055 297.224 166.007 297.884H165.095C165.203 296.72 166.307 295.856 167.663 295.856ZM167.339 301.28C168.551 301.28 169.259 300.524 169.259 299.276V299.12H167.567C166.667 299.12 166.079 299.552 166.079 300.26C166.079 300.884 166.571 301.28 167.339 301.28ZM176.26 295.952H177.22V302.264C177.22 303.548 176.296 304.448 174.988 304.448H172.132V303.62H174.928C175.708 303.62 176.26 303.032 176.26 302.228V301.16C175.972 301.724 175.168 302.096 174.256 302.096C172.372 302.096 171.34 300.74 171.34 298.976C171.34 297.212 172.372 295.856 174.256 295.856C175.072 295.856 175.888 296.264 176.26 296.84V295.952ZM174.34 301.232C175.552 301.232 176.344 300.344 176.344 298.976C176.344 297.608 175.552 296.72 174.34 296.72C173.116 296.72 172.324 297.608 172.324 298.976C172.324 300.344 173.116 301.232 174.34 301.232ZM183.287 300.056H184.259C184.055 301.292 182.987 302.096 181.487 302.096C179.699 302.096 178.499 300.668 178.499 298.94C178.499 297.164 179.603 295.856 181.379 295.856C183.143 295.856 184.199 297.08 184.199 298.688C184.199 298.82 184.187 299.024 184.175 299.108H179.447C179.519 300.356 180.347 301.244 181.487 301.244C182.471 301.244 183.095 300.812 183.287 300.056ZM181.379 296.672C180.359 296.672 179.675 297.272 179.495 298.34H183.215C183.143 297.32 182.459 296.672 181.379 296.672ZM188.863 296.804H188.023C186.799 296.804 186.451 297.908 186.451 299.336V302H185.491V295.952H186.451V297.176C186.703 296.348 187.207 295.952 188.095 295.952H188.863V296.804Z" fill="#828282"/>
</g>
<g id="Frame 6" filter="url(#filter4_b_20_199)">
<rect x="226" y="344" width="200" height="48" rx="9.12106" fill="white"/>
<g id="icon_5">
<rect id="Rectangle 5_5" x="236" y="354" width="26" height="26" rx="5.47264" fill="url(#paint0_linear_20_199)"/>
<g id="Frame_9">
<path id="Vector_10" d="M255.188 368.612V371.8C255.188 372.62 254.597 373.327 253.784 373.435C252.218 373.643 250.622 373.75 249 373.75C247.379 373.75 245.782 373.643 244.217 373.435C243.403 373.327 242.813 372.62 242.813 371.8V368.612M255.188 368.612C255.366 368.458 255.508 368.266 255.605 368.051C255.702 367.836 255.752 367.603 255.75 367.367V364.53C255.75 363.719 255.174 363.018 254.372 362.898C253.523 362.771 252.669 362.674 251.813 362.608M255.188 368.612C255.042 368.736 254.873 368.834 254.683 368.897C252.85 369.506 250.931 369.815 249 369.812C247.014 369.812 245.104 369.491 243.317 368.897C243.132 368.836 242.961 368.739 242.813 368.612M242.813 368.612C242.634 368.458 242.492 368.266 242.395 368.051C242.298 367.836 242.248 367.603 242.25 367.367V364.53C242.25 363.719 242.826 363.018 243.628 362.898C244.477 362.771 245.331 362.674 246.188 362.608M251.813 362.608V361.938C251.813 361.49 251.635 361.061 251.318 360.744C251.002 360.428 250.573 360.25 250.125 360.25H247.875C247.427 360.25 246.998 360.428 246.682 360.744C246.365 361.061 246.188 361.49 246.188 361.938V362.608M251.813 362.608C249.94 362.463 248.06 362.463 246.188 362.608M249 367.562H249.006V367.569H249V367.562Z" stroke="white" stroke-width="1.2" stroke-linecap="round" stroke-linejoin="round"/>
</g>
</g>
<path id="Analista S&#195;&#169;nior de Sistemas" d="M276.636 366L275.772 363.732H272.028L271.152 366H270.084L273.432 357.6H274.356L277.704 366H276.636ZM272.376 362.82H275.412L273.9 358.86L272.376 362.82ZM278.585 366V359.952H279.545V361.116C279.857 360.276 280.613 359.856 281.537 359.856C282.905 359.856 283.793 360.828 283.793 362.304V366H282.833V362.46C282.833 361.428 282.233 360.732 281.321 360.732C280.289 360.732 279.545 361.56 279.545 362.736V366H278.585ZM287.628 359.856C289.2 359.856 290.184 360.756 290.184 362.1V366H289.224V364.956C288.9 365.652 288.096 366.096 287.16 366.096C285.888 366.096 285.06 365.376 285.06 364.272C285.06 363.12 286.008 362.388 287.472 362.388H288.84C289.104 362.388 289.224 362.256 289.224 362.064C289.224 361.236 288.636 360.672 287.604 360.672C286.716 360.672 286.02 361.224 285.972 361.884H285.06C285.168 360.72 286.272 359.856 287.628 359.856ZM287.304 365.28C288.516 365.28 289.224 364.524 289.224 363.276V363.12H287.532C286.632 363.12 286.044 363.552 286.044 364.26C286.044 364.884 286.536 365.28 287.304 365.28ZM291.653 366V357.468H292.613V366H291.653ZM294.169 357.468H295.273V358.812H294.169V357.468ZM294.241 366V359.952H295.201V366H294.241ZM298.884 366.096C297.48 366.096 296.568 365.316 296.472 364.056H297.396C297.48 364.836 298.008 365.256 298.884 365.256C299.64 365.256 300.144 364.836 300.144 364.344C300.144 362.544 296.628 364.164 296.628 361.548C296.628 360.528 297.492 359.856 298.764 359.856C300.096 359.856 300.996 360.588 301.068 361.704H300.132C300.048 360.936 299.292 360.672 298.74 360.672C298.032 360.672 297.564 361.008 297.564 361.536C297.564 363.168 301.104 361.548 301.104 364.32C301.104 365.4 300.216 366.096 298.884 366.096ZM302.999 358.02H303.959V359.952H305.819V360.804H303.959V364.08C303.959 364.752 304.343 365.148 304.931 365.148H305.819V366H304.895C303.743 366 302.999 365.28 302.999 364.104V360.804H301.739V359.952H302.999V358.02ZM308.991 359.856C310.563 359.856 311.547 360.756 311.547 362.1V366H310.587V364.956C310.263 365.652 309.459 366.096 308.523 366.096C307.251 366.096 306.423 365.376 306.423 364.272C306.423 363.12 307.371 362.388 308.835 362.388H310.203C310.467 362.388 310.587 362.256 310.587 362.064C310.587 361.236 309.999 360.672 308.967 360.672C308.079 360.672 307.383 361.224 307.335 361.884H306.423C306.531 360.72 307.635 359.856 308.991 359.856ZM308.667 365.28C309.879 365.28 310.587 364.524 310.587 363.276V363.12H308.895C307.995 363.12 307.407 363.552 307.407 364.26C307.407 364.884 307.899 365.28 308.667 365.28ZM318.647 366.096C316.763 366.096 315.563 364.968 315.455 363.252H316.463C316.571 364.416 317.339 365.172 318.647 365.172C319.811 365.172 320.651 364.728 320.651 363.708C320.651 361.548 315.743 362.736 315.743 359.736C315.743 358.404 316.907 357.504 318.587 357.504C320.267 357.504 321.431 358.476 321.551 359.988H320.543C320.447 359.04 319.715 358.428 318.587 358.428C317.447 358.428 316.775 358.932 316.775 359.736C316.775 361.884 321.719 360.552 321.719 363.708C321.719 365.232 320.399 366.096 318.647 366.096ZM327.2 357.516L325.952 359.292H325.04L326.084 357.516H327.2ZM327.392 364.056H328.364C328.16 365.292 327.092 366.096 325.592 366.096C323.804 366.096 322.604 364.668 322.604 362.94C322.604 361.164 323.708 359.856 325.484 359.856C327.248 359.856 328.304 361.08 328.304 362.688C328.304 362.82 328.292 363.024 328.28 363.108H323.552C323.624 364.356 324.452 365.244 325.592 365.244C326.576 365.244 327.2 364.812 327.392 364.056ZM325.484 360.672C324.464 360.672 323.78 361.272 323.6 362.34H327.32C327.248 361.32 326.564 360.672 325.484 360.672ZM329.597 366V359.952H330.557V361.116C330.869 360.276 331.625 359.856 332.549 359.856C333.917 359.856 334.805 360.828 334.805 362.304V366H333.845V362.46C333.845 361.428 333.245 360.732 332.333 360.732C331.301 360.732 330.557 361.56 330.557 362.736V366H329.597ZM336.322 357.468H337.426V358.812H336.322V357.468ZM336.394 366V359.952H337.354V366H336.394ZM341.661 366.096C339.873 366.096 338.589 364.788 338.589 362.976C338.589 361.152 339.873 359.856 341.661 359.856C343.461 359.856 344.745 361.152 344.745 362.976C344.745 364.788 343.461 366.096 341.661 366.096ZM341.661 365.232C342.909 365.232 343.761 364.296 343.761 362.976C343.761 361.656 342.909 360.72 341.661 360.72C340.425 360.72 339.573 361.656 339.573 362.976C339.573 364.296 340.425 365.232 341.661 365.232ZM349.352 360.804H348.512C347.288 360.804 346.94 361.908 346.94 363.336V366H345.979V359.952H346.94V361.176C347.192 360.348 347.696 359.952 348.584 359.952H349.352V360.804ZM355.801 366.096C353.917 366.096 352.885 364.74 352.885 362.976C352.885 361.212 353.917 359.856 355.801 359.856C356.653 359.856 357.445 360.288 357.805 360.936V357.468H358.765V366H357.805V365.004C357.445 365.664 356.653 366.096 355.801 366.096ZM355.885 365.232C357.097 365.232 357.889 364.344 357.889 362.976C357.889 361.608 357.097 360.72 355.885 360.72C354.673 360.72 353.869 361.608 353.869 362.976C353.869 364.344 354.673 365.232 355.885 365.232ZM364.834 364.056H365.806C365.602 365.292 364.534 366.096 363.034 366.096C361.246 366.096 360.046 364.668 360.046 362.94C360.046 361.164 361.15 359.856 362.926 359.856C364.69 359.856 365.746 361.08 365.746 362.688C365.746 362.82 365.734 363.024 365.722 363.108H360.994C361.066 364.356 361.894 365.244 363.034 365.244C364.018 365.244 364.642 364.812 364.834 364.056ZM362.926 360.672C361.906 360.672 361.222 361.272 361.042 362.34H364.762C364.69 361.32 364.006 360.672 362.926 360.672ZM273.612 380.096C271.728 380.096 270.528 378.968 270.42 377.252H271.428C271.536 378.416 272.304 379.172 273.612 379.172C274.776 379.172 275.616 378.728 275.616 377.708C275.616 375.548 270.708 376.736 270.708 373.736C270.708 372.404 271.872 371.504 273.552 371.504C275.232 371.504 276.396 372.476 276.516 373.988H275.508C275.412 373.04 274.68 372.428 273.552 372.428C272.412 372.428 271.74 372.932 271.74 373.736C271.74 375.884 276.684 374.552 276.684 377.708C276.684 379.232 275.364 380.096 273.612 380.096ZM277.845 371.468H278.949V372.812H277.845V371.468ZM277.917 380V373.952H278.877V380H277.917ZM282.56 380.096C281.156 380.096 280.244 379.316 280.148 378.056H281.072C281.156 378.836 281.684 379.256 282.56 379.256C283.316 379.256 283.82 378.836 283.82 378.344C283.82 376.544 280.304 378.164 280.304 375.548C280.304 374.528 281.168 373.856 282.44 373.856C283.772 373.856 284.672 374.588 284.744 375.704H283.808C283.724 374.936 282.968 374.672 282.416 374.672C281.708 374.672 281.24 375.008 281.24 375.536C281.24 377.168 284.78 375.548 284.78 378.32C284.78 379.4 283.892 380.096 282.56 380.096ZM286.675 372.02H287.635V373.952H289.495V374.804H287.635V378.08C287.635 378.752 288.019 379.148 288.607 379.148H289.495V380H288.571C287.419 380 286.675 379.28 286.675 378.104V374.804H285.415V373.952H286.675V372.02ZM294.814 378.056H295.786C295.582 379.292 294.514 380.096 293.014 380.096C291.226 380.096 290.026 378.668 290.026 376.94C290.026 375.164 291.13 373.856 292.906 373.856C294.67 373.856 295.726 375.08 295.726 376.688C295.726 376.82 295.714 377.024 295.702 377.108H290.974C291.046 378.356 291.874 379.244 293.014 379.244C293.998 379.244 294.622 378.812 294.814 378.056ZM292.906 374.672C291.886 374.672 291.202 375.272 291.022 376.34H294.742C294.67 375.32 293.986 374.672 292.906 374.672ZM297.019 380V373.952H297.979V375.116C298.207 374.384 298.879 373.856 299.803 373.856C300.799 373.856 301.579 374.312 301.795 375.14C302.023 374.42 302.827 373.856 303.751 373.856C305.059 373.856 305.851 374.732 305.851 376.196V380H304.891V376.448C304.891 375.416 304.375 374.708 303.523 374.708C302.515 374.708 301.915 375.416 301.915 376.448V380H300.955V376.448C300.955 375.416 300.439 374.708 299.599 374.708C298.579 374.708 297.979 375.416 297.979 376.448V380H297.019ZM309.683 373.856C311.255 373.856 312.239 374.756 312.239 376.1V380H311.279V378.956C310.955 379.652 310.151 380.096 309.215 380.096C307.943 380.096 307.115 379.376 307.115 378.272C307.115 377.12 308.063 376.388 309.527 376.388H310.895C311.159 376.388 311.279 376.256 311.279 376.064C311.279 375.236 310.691 374.672 309.659 374.672C308.771 374.672 308.075 375.224 308.027 375.884H307.115C307.223 374.72 308.327 373.856 309.683 373.856ZM309.359 379.28C310.571 379.28 311.279 378.524 311.279 377.276V377.12H309.587C308.687 377.12 308.099 377.552 308.099 378.26C308.099 378.884 308.591 379.28 309.359 379.28ZM315.759 380.096C314.355 380.096 313.443 379.316 313.347 378.056H314.271C314.355 378.836 314.883 379.256 315.759 379.256C316.515 379.256 317.019 378.836 317.019 378.344C317.019 376.544 313.503 378.164 313.503 375.548C313.503 374.528 314.367 373.856 315.639 373.856C316.971 373.856 317.871 374.588 317.943 375.704H317.007C316.923 374.936 316.167 374.672 315.615 374.672C314.907 374.672 314.439 375.008 314.439 375.536C314.439 377.168 317.979 375.548 317.979 378.32C317.979 379.4 317.091 380.096 315.759 380.096Z" fill="#828282"/>
</g>
<g id="Frame 7" filter="url(#filter5_b_20_199)">
<rect x="338" y="282" width="200" height="48" rx="9.12106" fill="white"/>
<g id="icon_6">
<rect id="Rectangle 5_6" x="348" y="292" width="26" height="26" rx="5.47264" fill="#27AE60"/>
<g id="Frame_10">
<path id="Vector_11" d="M367.188 306.612V309.8C367.188 310.62 366.597 311.327 365.784 311.435C364.218 311.643 362.622 311.75 361 311.75C359.379 311.75 357.782 311.643 356.217 311.435C355.403 311.327 354.813 310.62 354.813 309.8V306.612M367.188 306.612C367.366 306.458 367.508 306.266 367.605 306.051C367.702 305.836 367.752 305.603 367.75 305.367V302.53C367.75 301.719 367.174 301.018 366.372 300.898C365.523 300.771 364.669 300.674 363.813 300.608M367.188 306.612C367.042 306.736 366.873 306.834 366.683 306.897C364.85 307.506 362.931 307.815 361 307.812C359.014 307.812 357.104 307.491 355.317 306.897C355.132 306.836 354.961 306.739 354.813 306.612M354.813 306.612C354.634 306.458 354.492 306.266 354.395 306.051C354.298 305.836 354.248 305.603 354.25 305.367V302.53C354.25 301.719 354.826 301.018 355.628 300.898C356.477 300.771 357.331 300.674 358.188 300.608M363.813 300.608V299.938C363.813 299.49 363.635 299.061 363.318 298.744C363.002 298.428 362.573 298.25 362.125 298.25H359.875C359.427 298.25 358.998 298.428 358.682 298.744C358.365 299.061 358.188 299.49 358.188 299.938V300.608M363.813 300.608C361.94 300.463 360.06 300.463 358.188 300.608M361 305.562H361.006V305.569H361V305.562Z" stroke="white" stroke-width="1.2" stroke-linecap="round" stroke-linejoin="round"/>
</g>
</g>
<path id="Analista de Auditoria Interna" d="M388.175 304L387.311 301.732H383.567L382.691 304H381.623L384.971 295.6H385.895L389.243 304H388.175ZM383.915 300.82H386.951L385.439 296.86L383.915 300.82ZM390.124 304V297.952H391.084V299.116C391.396 298.276 392.152 297.856 393.076 297.856C394.444 297.856 395.332 298.828 395.332 300.304V304H394.372V300.46C394.372 299.428 393.772 298.732 392.86 298.732C391.828 298.732 391.084 299.56 391.084 300.736V304H390.124ZM399.167 297.856C400.739 297.856 401.723 298.756 401.723 300.1V304H400.763V302.956C400.439 303.652 399.635 304.096 398.699 304.096C397.427 304.096 396.599 303.376 396.599 302.272C396.599 301.12 397.547 300.388 399.011 300.388H400.379C400.643 300.388 400.763 300.256 400.763 300.064C400.763 299.236 400.175 298.672 399.143 298.672C398.255 298.672 397.559 299.224 397.511 299.884H396.599C396.707 298.72 397.811 297.856 399.167 297.856ZM398.843 303.28C400.055 303.28 400.763 302.524 400.763 301.276V301.12H399.071C398.171 301.12 397.583 301.552 397.583 302.26C397.583 302.884 398.075 303.28 398.843 303.28ZM403.191 304V295.468H404.151V304H403.191ZM405.708 295.468H406.812V296.812H405.708V295.468ZM405.78 304V297.952H406.74V304H405.78ZM410.423 304.096C409.019 304.096 408.107 303.316 408.011 302.056H408.935C409.019 302.836 409.547 303.256 410.423 303.256C411.179 303.256 411.683 302.836 411.683 302.344C411.683 300.544 408.167 302.164 408.167 299.548C408.167 298.528 409.031 297.856 410.303 297.856C411.635 297.856 412.535 298.588 412.607 299.704H411.671C411.587 298.936 410.831 298.672 410.279 298.672C409.571 298.672 409.103 299.008 409.103 299.536C409.103 301.168 412.643 299.548 412.643 302.32C412.643 303.4 411.755 304.096 410.423 304.096ZM414.538 296.02H415.498V297.952H417.358V298.804H415.498V302.08C415.498 302.752 415.882 303.148 416.47 303.148H417.358V304H416.434C415.282 304 414.538 303.28 414.538 302.104V298.804H413.278V297.952H414.538V296.02ZM420.53 297.856C422.102 297.856 423.086 298.756 423.086 300.1V304H422.126V302.956C421.802 303.652 420.998 304.096 420.062 304.096C418.79 304.096 417.962 303.376 417.962 302.272C417.962 301.12 418.91 300.388 420.374 300.388H421.742C422.006 300.388 422.126 300.256 422.126 300.064C422.126 299.236 421.538 298.672 420.506 298.672C419.618 298.672 418.922 299.224 418.874 299.884H417.962C418.07 298.72 419.174 297.856 420.53 297.856ZM420.206 303.28C421.418 303.28 422.126 302.524 422.126 301.276V301.12H420.434C419.534 301.12 418.946 301.552 418.946 302.26C418.946 302.884 419.438 303.28 420.206 303.28ZM429.934 304.096C428.05 304.096 427.018 302.74 427.018 300.976C427.018 299.212 428.05 297.856 429.934 297.856C430.786 297.856 431.578 298.288 431.938 298.936V295.468H432.898V304H431.938V303.004C431.578 303.664 430.786 304.096 429.934 304.096ZM430.018 303.232C431.23 303.232 432.022 302.344 432.022 300.976C432.022 299.608 431.23 298.72 430.018 298.72C428.806 298.72 428.002 299.608 428.002 300.976C428.002 302.344 428.806 303.232 430.018 303.232ZM438.966 302.056H439.938C439.734 303.292 438.666 304.096 437.166 304.096C435.378 304.096 434.178 302.668 434.178 300.94C434.178 299.164 435.282 297.856 437.058 297.856C438.822 297.856 439.878 299.08 439.878 300.688C439.878 300.82 439.866 301.024 439.854 301.108H435.126C435.198 302.356 436.026 303.244 437.166 303.244C438.15 303.244 438.774 302.812 438.966 302.056ZM437.058 298.672C436.038 298.672 435.354 299.272 435.174 300.34H438.894C438.822 299.32 438.138 298.672 437.058 298.672ZM449.874 304L449.01 301.732H445.266L444.39 304H443.322L446.67 295.6H447.594L450.942 304H449.874ZM445.614 300.82H448.65L447.138 296.86L445.614 300.82ZM456.926 297.952V304H455.966V302.836C455.654 303.676 454.91 304.096 453.974 304.096C452.606 304.096 451.718 303.124 451.718 301.648V297.952H452.678V301.492C452.678 302.524 453.278 303.22 454.19 303.22C455.234 303.22 455.966 302.392 455.966 301.216V297.952H456.926ZM461.083 304.096C459.199 304.096 458.167 302.74 458.167 300.976C458.167 299.212 459.199 297.856 461.083 297.856C461.935 297.856 462.727 298.288 463.087 298.936V295.468H464.047V304H463.087V303.004C462.727 303.664 461.935 304.096 461.083 304.096ZM461.167 303.232C462.379 303.232 463.171 302.344 463.171 300.976C463.171 299.608 462.379 298.72 461.167 298.72C459.955 298.72 459.151 299.608 459.151 300.976C459.151 302.344 459.955 303.232 461.167 303.232ZM465.603 295.468H466.707V296.812H465.603V295.468ZM465.675 304V297.952H466.635V304H465.675ZM468.878 296.02H469.838V297.952H471.698V298.804H469.838V302.08C469.838 302.752 470.222 303.148 470.81 303.148H471.698V304H470.774C469.622 304 468.878 303.28 468.878 302.104V298.804H467.618V297.952H468.878V296.02ZM475.301 304.096C473.513 304.096 472.229 302.788 472.229 300.976C472.229 299.152 473.513 297.856 475.301 297.856C477.101 297.856 478.385 299.152 478.385 300.976C478.385 302.788 477.101 304.096 475.301 304.096ZM475.301 303.232C476.549 303.232 477.401 302.296 477.401 300.976C477.401 299.656 476.549 298.72 475.301 298.72C474.065 298.72 473.213 299.656 473.213 300.976C473.213 302.296 474.065 303.232 475.301 303.232ZM482.992 298.804H482.152C480.928 298.804 480.58 299.908 480.58 301.336V304H479.62V297.952H480.58V299.176C480.832 298.348 481.336 297.952 482.224 297.952H482.992V298.804ZM483.943 295.468H485.047V296.812H483.943V295.468ZM484.015 304V297.952H484.975V304H484.015ZM488.898 297.856C490.47 297.856 491.454 298.756 491.454 300.1V304H490.494V302.956C490.17 303.652 489.366 304.096 488.43 304.096C487.158 304.096 486.33 303.376 486.33 302.272C486.33 301.12 487.278 300.388 488.742 300.388H490.11C490.374 300.388 490.494 300.256 490.494 300.064C490.494 299.236 489.906 298.672 488.874 298.672C487.986 298.672 487.29 299.224 487.242 299.884H486.33C486.438 298.72 487.542 297.856 488.898 297.856ZM488.574 303.28C489.786 303.28 490.494 302.524 490.494 301.276V301.12H488.802C487.902 301.12 487.314 301.552 487.314 302.26C487.314 302.884 487.806 303.28 488.574 303.28ZM382.427 318V309.6H383.447V318H382.427ZM385.132 318V311.952H386.092V313.116C386.404 312.276 387.16 311.856 388.084 311.856C389.452 311.856 390.34 312.828 390.34 314.304V318H389.38V314.46C389.38 313.428 388.78 312.732 387.868 312.732C386.836 312.732 386.092 313.56 386.092 314.736V318H385.132ZM392.366 310.02H393.326V311.952H395.186V312.804H393.326V316.08C393.326 316.752 393.71 317.148 394.298 317.148H395.186V318H394.262C393.11 318 392.366 317.28 392.366 316.104V312.804H391.106V311.952H392.366V310.02ZM400.505 316.056H401.477C401.273 317.292 400.205 318.096 398.705 318.096C396.917 318.096 395.717 316.668 395.717 314.94C395.717 313.164 396.821 311.856 398.597 311.856C400.361 311.856 401.417 313.08 401.417 314.688C401.417 314.82 401.405 315.024 401.393 315.108H396.665C396.737 316.356 397.565 317.244 398.705 317.244C399.689 317.244 400.313 316.812 400.505 316.056ZM398.597 312.672C397.577 312.672 396.893 313.272 396.713 314.34H400.433C400.361 313.32 399.677 312.672 398.597 312.672ZM406.082 312.804H405.242C404.018 312.804 403.67 313.908 403.67 315.336V318H402.71V311.952H403.67V313.176C403.922 312.348 404.426 311.952 405.314 311.952H406.082V312.804ZM407.104 318V311.952H408.064V313.116C408.376 312.276 409.132 311.856 410.056 311.856C411.424 311.856 412.312 312.828 412.312 314.304V318H411.352V314.46C411.352 313.428 410.752 312.732 409.84 312.732C408.808 312.732 408.064 313.56 408.064 314.736V318H407.104ZM416.148 311.856C417.72 311.856 418.704 312.756 418.704 314.1V318H417.744V316.956C417.42 317.652 416.616 318.096 415.68 318.096C414.408 318.096 413.58 317.376 413.58 316.272C413.58 315.12 414.528 314.388 415.992 314.388H417.36C417.624 314.388 417.744 314.256 417.744 314.064C417.744 313.236 417.156 312.672 416.124 312.672C415.236 312.672 414.54 313.224 414.492 313.884H413.58C413.688 312.72 414.792 311.856 416.148 311.856ZM415.824 317.28C417.036 317.28 417.744 316.524 417.744 315.276V315.12H416.052C415.152 315.12 414.564 315.552 414.564 316.26C414.564 316.884 415.056 317.28 415.824 317.28Z" fill="#828282"/>
<a href="https://www.linkedin.com/jobs/view/3868944077/?alternateChannel=search&#38;refId=uCNbHq4H306EsZdcU5M8Ag%3D%3D&#38;trackingId=zyrRYxC%2B1l8jnAunRm1zDQ%3D%3D&#38;trk=d_flagship3_search_srp_jobs">
<rect fill="black" fill-opacity="0" y="-0.2" width="113.399" height="14.4"/>
</a>
<a href="https://www.linkedin.com/jobs/view/3868944077/?alternateChannel=search&#38;refId=uCNbHq4H306EsZdcU5M8Ag%3D%3D&#38;trackingId=zyrRYxC%2B1l8jnAunRm1zDQ%3D%3D&#38;trk=d_flagship3_search_srp_jobs">
<rect fill="black" fill-opacity="0" y="13.8" width="37.7886" height="14.4"/>
</a>
</g>
<g id="Frame_11">
<path id="Vector_12" d="M172.26 339.147C171.985 341.253 171.821 343.371 171.769 345.494C174.648 346.697 177.404 348.173 180 349.904C182.596 348.173 185.353 346.696 188.232 345.494C188.18 343.371 188.016 341.253 187.741 339.147M187.741 339.147C188.616 338.853 189.503 338.581 190.399 338.333C187.136 336.045 183.652 334.089 180 332.493C176.348 334.089 172.864 336.046 169.601 338.334C170.494 338.581 171.381 338.852 172.259 339.147C174.928 340.044 177.517 341.162 180 342.489C182.483 341.162 185.073 340.044 187.741 339.147ZM174.75 344C174.949 344 175.14 343.921 175.28 343.78C175.421 343.64 175.5 343.449 175.5 343.25C175.5 343.051 175.421 342.86 175.28 342.72C175.14 342.579 174.949 342.5 174.75 342.5C174.551 342.5 174.36 342.579 174.22 342.72C174.079 342.86 174 343.051 174 343.25C174 343.449 174.079 343.64 174.22 343.78C174.36 343.921 174.551 344 174.75 344ZM174.75 344V340.325C176.447 339.27 178.199 338.308 180 337.443M172.993 348.993C173.551 348.436 173.993 347.775 174.295 347.047C174.596 346.319 174.751 345.538 174.75 344.75V343.25" stroke="white" stroke-width="1.5" stroke-linecap="round" stroke-linejoin="round"/>
</g>
</g>
<defs>
<filter id="filter0_b_20_199" x="100" y="110" width="264" height="109.539" filterUnits="userSpaceOnUse" color-interpolation-filters="sRGB">
<feFlood flood-opacity="0" result="BackgroundImageFix"/>
<feGaussianBlur in="BackgroundImageFix" stdDeviation="16"/>
<feComposite in2="SourceAlpha" operator="in" result="effect1_backgroundBlur_20_199"/>
<feBlend mode="normal" in="SourceGraphic" in2="effect1_backgroundBlur_20_199" result="shape"/>
</filter>
<filter id="filter1_b_20_199" x="39" y="172" width="264" height="112" filterUnits="userSpaceOnUse" color-interpolation-filters="sRGB">
<feFlood flood-opacity="0" result="BackgroundImageFix"/>
<feGaussianBlur in="BackgroundImageFix" stdDeviation="16"/>
<feComposite in2="SourceAlpha" operator="in" result="effect1_backgroundBlur_20_199"/>
<feBlend mode="normal" in="SourceGraphic" in2="effect1_backgroundBlur_20_199" result="shape"/>
</filter>
<filter id="filter2_b_20_199" x="275" y="188" width="264" height="112" filterUnits="userSpaceOnUse" color-interpolation-filters="sRGB">
<feFlood flood-opacity="0" result="BackgroundImageFix"/>
<feGaussianBlur in="BackgroundImageFix" stdDeviation="16"/>
<feComposite in2="SourceAlpha" operator="in" result="effect1_backgroundBlur_20_199"/>
<feBlend mode="normal" in="SourceGraphic" in2="effect1_backgroundBlur_20_199" result="shape"/>
</filter>
<filter id="filter3_b_20_199" x="66" y="234" width="264" height="112" filterUnits="userSpaceOnUse" color-interpolation-filters="sRGB">
<feFlood flood-opacity="0" result="BackgroundImageFix"/>
<feGaussianBlur in="BackgroundImageFix" stdDeviation="16"/>
<feComposite in2="SourceAlpha" operator="in" result="effect1_backgroundBlur_20_199"/>
<feBlend mode="normal" in="SourceGraphic" in2="effect1_backgroundBlur_20_199" result="shape"/>
</filter>
<filter id="filter4_b_20_199" x="194" y="312" width="264" height="112" filterUnits="userSpaceOnUse" color-interpolation-filters="sRGB">
<feFlood flood-opacity="0" result="BackgroundImageFix"/>
<feGaussianBlur in="BackgroundImageFix" stdDeviation="16"/>
<feComposite in2="SourceAlpha" operator="in" result="effect1_backgroundBlur_20_199"/>
<feBlend mode="normal" in="SourceGraphic" in2="effect1_backgroundBlur_20_199" result="shape"/>
</filter>
<filter id="filter5_b_20_199" x="306" y="250" width="264" height="112" filterUnits="userSpaceOnUse" color-interpolation-filters="sRGB">
<feFlood flood-opacity="0" result="BackgroundImageFix"/>
<feGaussianBlur in="BackgroundImageFix" stdDeviation="16"/>
<feComposite in2="SourceAlpha" operator="in" result="effect1_backgroundBlur_20_199"/>
<feBlend mode="normal" in="SourceGraphic" in2="effect1_backgroundBlur_20_199" result="shape"/>
</filter>
<linearGradient id="paint0_linear_20_199" x1="262" y1="359.935" x2="236" y2="374.99" gradientUnits="userSpaceOnUse">
<stop stop-color="#0BBAFD"/>
<stop offset="1" stop-color="#70D6FE"/>
</linearGradient>
<clipPath id="clip0_20_199">
<rect width="18" height="18" fill="white" transform="translate(110 278)"/>
</clipPath>
</defs>
</svg>
