<svg width="52" height="52" viewBox="0 0 52 52" fill="none" xmlns="http://www.w3.org/2000/svg">
<path d="M34.4324 17.5675L34.5669 17.702C34.6615 17.7966 34.7868 17.8544 34.9202 17.8649L39.793 18.2496C39.9585 18.2627 40.1213 18.2019 40.2378 18.0836L48.3272 9.86781C48.6391 9.5511 48.4774 9.01485 48.0425 8.92329L44.075 8.08802C43.8528 8.04126 43.6806 7.86548 43.6384 7.64242L42.9258 3.87569C42.8411 3.42804 42.287 3.26177 41.9698 3.58884L33.9071 11.9036C33.7944 12.0198 33.7372 12.179 33.7503 12.3404L34.1346 17.0805C34.1454 17.2135 34.2031 17.3383 34.2975 17.4326L34.4324 17.5675ZM34.4324 17.5675L25.4378 26.4216" stroke="#2BB2BB" stroke-width="2.24865" stroke-linecap="round" stroke-linejoin="round"/>
<path fill-rule="evenodd" clip-rule="evenodd" d="M29.1194 16.1736L28.8505 17.2576C28.8033 17.448 28.7788 17.641 28.7763 17.833C27.9448 17.5694 27.0593 17.4272 26.1405 17.4272C21.3282 17.4272 17.427 21.3284 17.427 26.1407C17.427 30.9531 21.3282 34.8542 26.1405 34.8542C30.9529 34.8542 34.8541 30.9531 34.8541 26.1407C34.8541 25.1059 34.6737 24.1133 34.3426 23.1925C34.4228 23.1761 34.5026 23.1557 34.5819 23.1313L35.9601 22.7064C36.3361 23.7816 36.5405 24.9373 36.5405 26.1407C36.5405 31.8845 31.8843 36.5407 26.1405 36.5407C20.3968 36.5407 15.7405 31.8845 15.7405 26.1407C15.7405 20.397 20.3968 15.7407 26.1405 15.7407C27.1758 15.7407 28.1757 15.892 29.1194 16.1736Z" fill="#333333"/>
<path fill-rule="evenodd" clip-rule="evenodd" d="M41.605 20.9663C42.1487 22.5921 42.4432 24.3319 42.4432 26.1406C42.4432 35.1443 35.1443 42.4433 26.1405 42.4433C17.1368 42.4433 9.83782 35.1443 9.83782 26.1406C9.83782 17.1368 17.1368 9.83785 26.1405 9.83785C27.6656 9.83785 29.1419 10.0473 30.542 10.4389L30.9483 8.80099C29.4179 8.3776 27.8056 8.15137 26.1405 8.15137C16.2054 8.15137 8.15134 16.2054 8.15134 26.1406C8.15134 36.0757 16.2054 44.1297 26.1405 44.1297C36.0757 44.1297 44.1297 36.0757 44.1297 26.1406C44.1297 24.159 43.8093 22.2522 43.2175 20.4693L41.605 20.9663Z" fill="#333333"/>
<path fill-rule="evenodd" clip-rule="evenodd" d="M1.68649 26C1.68649 12.572 12.572 1.68649 26 1.68649C28.259 1.68649 30.446 1.99456 32.5214 2.571C32.7778 1.94488 33.2678 1.46532 33.8607 1.20942C31.3807 0.423799 28.7399 0 26 0C11.6406 0 0 11.6406 0 26C0 40.3594 11.6406 52 26 52C40.3594 52 52 40.3594 52 26C52 22.9196 51.4643 19.9644 50.481 17.2223C50.2495 17.8207 49.793 18.3305 49.1709 18.6125C49.913 20.9422 50.3135 23.4243 50.3135 26C50.3135 39.428 39.428 50.3135 26 50.3135C12.572 50.3135 1.68649 39.428 1.68649 26Z" fill="#333333"/>
</svg>
