<svg width="72" height="72" viewBox="0 0 72 72" fill="none" xmlns="http://www.w3.org/2000/svg">
<path d="M27.1736 42.9484L28.5006 42.0637C28.7503 41.8973 29.0425 41.8084 29.3426 41.8084C30.1401 41.8084 31.9496 41.8084 35.3436 41.8084C40.8536 41.8084 40.8536 41.2384 44.0836 40.2884C46.4306 39.5981 48.2238 39.9006 49.0075 40.1992C49.1468 40.2522 49.2686 40.3405 49.3769 40.4429L58.5277 49.0945C59.1498 49.6827 59.1636 50.6684 58.5582 51.2738L52.6264 57.2056C52.0106 57.8214 51.0197 57.7826 50.4453 57.1281C49.6029 56.1683 48.3835 54.8451 46.9336 53.5884C44.6536 51.6124 40.1569 52.0051 38.1936 52.4484C36.4836 52.8284 32.4176 53.3604 29.8336 52.4484C27.2496 51.5364 24.1969 48.7751 22.9936 47.5084L16.7236 41.2384L12.5548 36.7362C12.1939 36.3464 12.0289 35.7743 12.3113 35.3245C13.0884 34.0864 14.5011 34.4002 15.2036 34.7784L27.1736 42.9484ZM27.1736 42.9484C26.9836 43.7084 26.8316 45.3804 27.7436 45.9884C28.6117 46.5672 32.7624 46.9623 35.017 47.1082C35.2332 47.1222 35.4469 47.0869 35.6518 47.0168C37.4544 46.4008 41.2189 45.6961 44.0836 47.1284" stroke="#333333" stroke-width="1.482" stroke-linecap="round" stroke-linejoin="round"/>
<path d="M22.7415 13.1899C19.7806 16.1508 19.7806 20.9513 22.7415 23.9123L35.6847 36.8553L48.6275 23.9123C51.5883 20.9513 51.5883 16.1508 48.6275 13.1899C45.6666 10.229 40.8661 10.229 37.9051 13.1899L35.6847 15.4107L33.4639 13.1899C30.5029 10.229 25.7024 10.229 22.7415 13.1899Z" stroke="#2BB2BB" stroke-width="1.9" stroke-linecap="round" stroke-linejoin="round"/>
<circle cx="35.53" cy="35.53" r="34.789" stroke="#333333" stroke-width="1.482"/>
</svg>
